<?xml version="1.0" standalone="no"?>
<!DOCTYPE svg PUBLIC "-//W3C//DTD SVG 20010904//EN"
 "http://www.w3.org/TR/2001/REC-SVG-20010904/DTD/svg10.dtd">
<svg version="1.0" xmlns="http://www.w3.org/2000/svg"
 width="1200.000000pt" height="630.000000pt" viewBox="0 0 1200.000000 630.000000"
 preserveAspectRatio="xMidYMid meet">
<metadata>
Created by potrace 1.16, written by Peter Selinger 2001-2019
</metadata>
<g transform="translate(0.000000,630.000000) scale(0.100000,-0.100000)"
fill="#000000" stroke="none">
<path d="M0 3150 l0 -3150 6000 0 6000 0 0 1869 0 1869 -24 6 c-14 3 -28 15
-31 27 -8 24 19 69 40 69 13 0 15 152 15 1230 l0 1230 -6000 0 -6000 0 0
-3150z m4043 2773 c-7 -2 -19 -2 -25 0 -7 3 -2 5 12 5 14 0 19 -2 13 -5z
m-3383 -188 l83 -85 83 85 c76 77 87 85 121 85 l38 0 -77 -77 c-42 -43 -94
-97 -115 -120 -21 -24 -43 -43 -49 -43 -10 0 -137 127 -207 208 l-29 32 34 0
c30 0 45 -11 118 -85z m229 -86 c79 83 147 151 151 151 5 0 7 -116 6 -257 l-1
-258 -80 0 -80 0 -5 138 -5 138 -51 -53 c-89 -94 -70 -98 -204 40 -65 67 -120
122 -122 122 -2 0 -2 -55 0 -122 4 -150 0 -168 -33 -168 l-25 0 0 216 0 215
153 -156 152 -156 144 150z m441 33 c0 -8 16 -30 55 -79 l20 -25 39 56 c32 46
44 56 67 56 l29 0 0 -130 0 -130 -25 0 c-25 0 -25 1 -25 87 0 83 -1 86 -19 69
-10 -9 -27 -32 -37 -51 -22 -40 -38 -44 -55 -12 -7 12 -22 35 -35 50 l-23 28
-3 -83 c-3 -81 -4 -83 -28 -83 l-25 0 -3 128 -3 127 36 0 c19 0 35 -4 35 -8z
m481 -19 c6 -15 16 -41 24 -58 37 -81 75 -168 75 -171 0 -2 -13 -4 -30 -4 -19
0 -30 5 -30 14 0 8 -13 40 -29 72 -16 33 -32 69 -35 82 -4 12 -10 22 -14 22
-4 0 -25 -43 -47 -95 -36 -88 -41 -95 -67 -95 -15 0 -28 2 -28 5 0 2 13 33 29
67 17 35 42 91 57 126 25 55 31 62 56 62 22 0 31 -6 39 -27z m280 -34 c24 -33
49 -66 54 -72 21 -24 85 -115 85 -121 0 -3 -12 -6 -27 -6 -22 1 -35 11 -60 47
l-31 46 -33 -47 c-26 -36 -39 -46 -61 -46 -15 0 -28 5 -28 10 0 6 4 10 9 10 5
0 11 8 15 18 3 9 19 35 35 57 l29 40 -39 55 c-21 31 -39 59 -39 63 0 4 11 7
24 7 18 0 35 -16 67 -61z m123 33 c-9 -16 -24 -38 -33 -51 -16 -21 -17 -22
-34 -4 -15 18 -15 21 6 51 16 23 30 32 50 32 28 0 28 0 11 -28z m316 3 l0 -26
-102 3 c-98 3 -103 4 -106 26 -3 22 -2 22 102 22 l106 0 0 -25z m298 3 c-3
-22 -7 -23 -98 -23 -91 0 -95 1 -98 23 -3 22 -1 22 98 22 99 0 101 0 98 -22z
m297 -4 c39 -42 30 -116 -17 -133 -20 -7 -19 -9 15 -48 21 -22 37 -43 37 -47
0 -3 -13 -6 -28 -6 -21 0 -37 11 -66 46 -49 59 -79 58 -80 -1 -1 -36 -4 -40
-28 -43 l-28 -3 0 65 0 66 75 0 c70 0 76 2 87 25 18 40 -2 54 -85 57 -66 3
-72 5 -75 26 -3 21 -1 22 83 22 80 0 88 -2 110 -26z m-675 -144 c0 -89 0 -90
-25 -90 -25 0 -25 1 -25 90 0 89 0 90 25 90 25 0 25 -1 25 -90z m368 43 c3
-22 0 -23 -67 -23 l-71 0 0 -30 0 -30 75 0 c74 0 75 0 75 -25 l0 -26 -97 3
-98 3 -3 64 c-4 94 -6 92 95 89 83 -3 88 -4 91 -25z m-2218 -174 l0 -109 -80
0 -80 0 0 30 c0 30 1 30 55 30 l55 0 0 108 1 107 24 -28 c23 -26 25 -35 25
-138z m2455 -338 c810 -29 1800 -58 2975 -87 509 -13 670 -19 686 -29 30 -19
34 -53 32 -264 l-1 -186 -9 215 c-5 118 -13 218 -17 222 -10 11 -166 16 -1111
38 -470 11 -1136 29 -1480 40 -344 11 -781 25 -971 30 -190 6 -512 17 -715 25
-482 19 -450 20 -469 -9 -14 -21 -13 -67 9 -497 41 -774 67 -1289 77 -1539 5
-129 20 -436 34 -681 14 -246 25 -454 25 -463 0 -34 33 -35 191 -11 348 55
569 88 1044 159 375 55 897 129 1450 205 432 60 521 71 615 81 52 5 164 19
248 30 85 12 159 19 165 17 14 -4 -197 -37 -478 -73 -110 -14 -209 -28 -220
-32 -11 -3 -23 -5 -27 -4 -5 1 -8 -2 -8 -6 0 -5 -22 -7 -50 -4 -27 2 -50 0
-50 -5 0 -5 -18 -7 -41 -5 -30 3 -43 0 -53 -13 -11 -15 -22 -17 -67 -12 -30 4
-48 3 -41 -1 17 -11 -125 -41 -247 -52 -53 -5 -115 -12 -138 -15 -32 -4 -43
-3 -43 7 0 9 -3 10 -8 2 -8 -12 -62 -25 -62 -15 0 8 -115 -3 -255 -24 -55 -9
-260 -38 -455 -66 -195 -27 -474 -68 -620 -90 -818 -123 -799 -121 -826 -114
-12 2 -26 17 -32 32 -11 29 -23 207 -42 608 -6 127 -20 390 -31 585 -10 195
-24 481 -29 635 -5 154 -12 303 -15 330 -10 95 -34 660 -37 848 -3 178 -2 189
17 204 24 18 205 16 1080 -16z m-944 -71 c5 0 9 -13 9 -29 0 -34 -31 -51 -55
-31 -28 23 -8 77 23 65 8 -3 18 -5 23 -5z m134 -35 c0 -25 -4 -31 -27 -33 -18
-2 -30 3 -37 17 -17 31 -3 53 33 49 27 -3 31 -7 31 -33z m119 22 c25 -18 13
-59 -16 -55 -30 4 -45 32 -29 52 16 19 22 20 45 3z m7656 -17 c0 -5 -2 -10 -4
-10 -3 0 -8 5 -11 10 -3 6 -1 10 4 10 6 0 11 -4 11 -10z m-5483 -77 c-3 -10
-5 -2 -5 17 0 19 2 27 5 18 2 -10 2 -26 0 -35z m223 -2 c0 -14 -6 -21 -20 -21
-15 0 -20 7 -20 28 0 16 3 31 6 35 10 10 34 -20 34 -42z m-326 16 c21 -21 26
-21 26 -1 0 9 -5 12 -12 8 -10 -5 -9 -3 0 7 11 12 15 11 24 -4 9 -17 12 -17
26 -3 15 13 17 12 17 -9 0 -21 -4 -23 -45 -22 -36 1 -46 5 -51 21 -6 20 -7 20
-17 -4 l-11 -25 -1 25 -2 25 -8 -25 -8 -25 -1 28 c-1 24 3 27 23 25 12 -2 31
-11 40 -21z m171 10 c10 3 12 -2 8 -16 -4 -18 -7 -18 -20 -6 -18 19 -29 20
-14 2 6 -8 8 -16 5 -20 -9 -9 -34 4 -34 17 0 19 23 37 33 27 5 -5 15 -7 22 -4z
m275 -2 c6 -8 10 -22 7 -32 -3 -13 -5 -11 -6 7 -2 25 -2 25 -11 3 -8 -19 -16
-22 -55 -21 -41 0 -46 3 -43 22 2 15 11 21 36 22 28 1 30 0 16 -11 -13 -9 -14
-14 -5 -19 7 -5 15 -5 18 -2 4 3 1 6 -5 6 -7 0 -5 8 6 19 21 24 26 25 42 6z
m-197 -22 c-7 -2 -19 -2 -25 0 -7 3 -2 5 12 5 14 0 19 -2 13 -5z m-1898 -208
c0 -25 -3 -45 -7 -45 -5 0 -8 20 -8 45 0 25 3 45 8 45 4 0 7 -20 7 -45z m335
0 c0 -25 -3 -45 -7 -45 -5 0 -8 20 -8 45 0 25 3 45 8 45 4 0 7 -20 7 -45z
m-886 18 c4 -9 2 -21 -4 -27 -7 -7 -10 -6 -10 2 0 7 -8 13 -17 13 -17 1 -17 2
0 6 9 2 15 9 12 14 -4 5 -2 9 3 9 6 0 13 -8 16 -17z m358 -1 c-16 -5 -15 -29
1 -35 9 -4 9 -6 -1 -6 -13 -1 -33 39 -26 51 3 4 12 4 21 1 11 -4 13 -8 5 -11z
m768 -8 c0 -12 4 -12 20 -4 16 9 22 8 26 -5 3 -8 3 -22 0 -31 -6 -15 -8 -15
-25 0 -14 13 -20 14 -23 5 -7 -20 -28 0 -28 25 0 12 3 26 6 29 10 9 24 -2 24
-19z m100 -19 c0 -29 -10 -38 -27 -24 -14 12 -18 51 -6 62 11 11 33 -14 33
-38z m90 -1 c0 -17 -6 -24 -20 -24 -15 0 -20 7 -20 28 0 16 3 32 7 35 11 12
33 -14 33 -39z m-1104 12 c0 -13 -5 -22 -9 -19 -5 3 -6 11 -3 19 3 8 1 14 -4
14 -5 0 -11 -10 -13 -22 -4 -20 -4 -19 -6 5 -1 20 4 27 18 27 14 0 18 -7 17
-24z m52 -4 c2 -14 -2 -22 -12 -22 -20 0 -29 17 -15 26 8 4 9 3 5 -4 -4 -7 -2
-12 3 -12 18 0 12 28 -6 34 -14 4 -14 4 2 3 12 -1 21 -11 23 -25z m31 14 c8
-10 8 -16 -1 -24 -10 -8 -13 -4 -13 14 0 28 -1 28 14 10z m119 -4 c2 -7 -4
-12 -13 -12 -9 0 -13 -4 -10 -10 3 -5 1 -10 -4 -10 -12 0 -15 33 -4 44 9 9 26
2 31 -12z m201 -15 c-1 -17 -2 -18 -6 -4 -5 18 -18 23 -27 8 -4 -5 0 -12 6
-14 8 -3 6 -6 -4 -6 -11 -1 -18 6 -18 18 0 11 8 21 18 24 24 5 32 -1 31 -26z
m365 -4 c9 -18 12 -33 7 -33 -5 0 -14 14 -20 31 -19 54 -14 54 13 2z m-874 17
c8 -5 11 -10 5 -10 -5 0 -17 5 -25 10 -8 5 -10 10 -5 10 6 0 17 -5 25 -10z
m550 -12 c0 -12 -1 -19 -3 -17 -1 2 -9 12 -16 22 -12 14 -11 17 3 17 10 0 16
-8 16 -22z m84 14 c-6 -4 -14 -14 -17 -22 -4 -10 -6 -8 -6 8 -1 15 5 22 17 22
10 0 13 -3 6 -8z m102 -12 c0 -9 -7 -16 -16 -16 -9 0 -16 7 -16 16 0 9 7 16
16 16 9 0 16 -7 16 -16z m194 -5 c0 -16 -6 -25 -15 -25 -9 0 -15 9 -14 23 0
21 1 21 9 2 8 -19 9 -19 9 3 1 30 11 28 11 -3z m45 15 c3 -6 -2 -13 -11 -17
-16 -6 -16 -7 2 -14 16 -6 16 -8 2 -8 -21 -1 -32 15 -24 34 6 17 22 20 31 5z
m3035 -34 c0 -30 -5 -34 -35 -28 -18 3 -25 11 -25 28 0 30 20 32 21 2 1 -22 2
-19 15 20 6 20 24 4 24 -22z m97 8 c3 -8 2 -22 -2 -31 -6 -17 -7 -17 -21 1 -8
11 -14 14 -14 8 0 -7 -4 -12 -10 -12 -5 0 -10 11 -10 24 0 19 5 24 26 24 14 0
28 -7 31 -14z m97 7 c11 -17 -9 -46 -31 -47 -16 0 -22 7 -25 28 -4 25 -2 28
23 28 15 0 30 -4 33 -9z m-4309 -91 c0 -52 -1 -55 -25 -55 -23 0 -25 4 -28 58
l-3 58 28 -3 c27 -3 28 -5 28 -58z m8985 -80 c-8 -5 -7 -11 4 -22 14 -14 13
-16 -4 -21 -22 -6 -30 0 -30 23 0 20 20 41 33 33 5 -3 4 -9 -3 -13z m-682 -2
c18 -18 15 -56 -5 -66 -10 -6 -28 -6 -40 -1 -39 14 -25 79 17 79 9 0 21 -5 28
-12z m-8157 -135 c-4 -34 -5 -36 -11 -13 -4 14 -2 31 3 38 13 17 14 16 8 -25z
m-256 7 c3 -11 1 -28 -5 -37 -9 -16 -10 -15 -5 5 4 13 1 29 -5 37 -8 10 -9 15
-2 15 6 0 13 -9 17 -20z m357 -18 c-5 -24 -6 -25 -13 -7 -12 31 -10 45 5 39 8
-3 11 -15 8 -32z m81 13 c-7 -21 -13 -19 -13 6 0 11 4 18 10 14 5 -3 7 -12 3
-20z m-326 -16 l2 -24 -8 25 -8 25 -11 -25 c-10 -23 -11 -23 -11 -4 -2 41 33
45 36 3z m51 13 c2 -7 -4 -12 -13 -12 -10 0 -14 -5 -9 -12 5 -10 4 -10 -5 -2
-6 6 -9 18 -5 28 7 18 25 17 32 -2z m49 -13 l2 -24 -7 25 c-5 17 -10 21 -16
12 -4 -6 -4 -18 0 -24 5 -10 4 -10 -5 -2 -14 13 -4 46 13 41 6 -2 12 -14 13
-28z m87 3 c-8 -2 -11 -9 -8 -15 5 -9 4 -9 -5 -1 -6 6 -9 18 -5 27 4 13 9 14
19 4 11 -10 11 -13 -1 -15z m116 24 c0 -2 -7 -6 -15 -10 -8 -3 -15 -1 -15 4 0
6 7 10 15 10 8 0 15 -2 15 -4z m47 -28 c-3 -7 -5 -2 -5 12 0 14 2 19 5 13 2
-7 2 -19 0 -25z m3030 -70 c-2 -13 -4 -5 -4 17 -1 22 1 32 4 23 2 -10 2 -28 0
-40z m-752 7 c0 -19 -3 -35 -7 -35 -5 0 -8 16 -8 35 0 19 3 35 8 35 4 0 7 -16
7 -35z m-1976 -28 c1 -5 -3 -5 -9 -2 -5 3 -10 16 -9 28 0 21 1 21 9 2 5 -11 9
-24 9 -28z m556 12 c-4 -11 -2 -19 4 -19 6 0 11 7 11 15 0 8 9 15 20 15 11 0
20 -5 20 -11 0 -5 -5 -7 -12 -3 -7 5 -9 2 -5 -9 5 -12 0 -15 -21 -14 -22 2
-28 8 -30 31 -2 19 0 26 8 21 6 -4 8 -15 5 -26z m-115 -9 c0 -13 -7 -20 -20
-20 -13 0 -20 7 -20 20 0 13 7 20 20 20 13 0 20 -7 20 -20z m40 0 c0 -19 -11
-26 -23 -14 -8 8 3 34 14 34 5 0 9 -9 9 -20z m37 -2 c-3 -8 -6 -5 -6 6 -1 11
2 17 5 13 3 -3 4 -12 1 -19z m117 7 c-4 -8 -8 -15 -10 -15 -2 0 -4 7 -4 15 0
8 4 15 10 15 5 0 7 -7 4 -15z m-665 -18 c0 -9 -2 -8 -6 1 -2 6 -10 9 -15 6 -7
-4 -8 -2 -4 5 9 13 26 5 25 -12z m2758 -64 c-3 -10 -5 -2 -5 17 0 19 2 27 5
18 2 -10 2 -26 0 -35z m-753 4 c2 -15 0 -27 -5 -27 -5 0 -9 14 -9 32 0 37 7
34 14 -5z m-2107 -39 c-3 -7 -5 -2 -5 12 0 14 2 19 5 13 2 -7 2 -19 0 -25z
m30 0 c-3 -7 -5 -2 -5 12 0 14 2 19 5 13 2 -7 2 -19 0 -25z m20 -5 c-3 -10 -5
-4 -5 12 0 17 2 24 5 18 2 -7 2 -21 0 -30z m20 5 c-3 -7 -5 -2 -5 12 0 14 2
19 5 13 2 -7 2 -19 0 -25z m20 0 c-3 -7 -5 -2 -5 12 0 14 2 19 5 13 2 -7 2
-19 0 -25z m20 -5 c-3 -10 -5 -4 -5 12 0 17 2 24 5 18 2 -7 2 -21 0 -30z
m-140 21 c-3 -4 -1 -16 5 -28 10 -20 9 -20 -7 -4 -15 14 -14 38 2 38 4 0 3 -3
0 -6z m1376 -75 c-7 -25 -16 -30 -33 -17 -12 8 -12 9 3 4 9 -3 17 -1 17 3 0 5
-5 11 -12 13 -7 3 -9 12 -5 22 10 25 37 3 30 -25z m27 31 c0 -5 -5 -10 -11
-10 -5 0 -7 5 -4 10 3 6 8 10 11 10 2 0 4 -4 4 -10z m75 -22 c-2 -18 -1 -25 2
-15 3 11 11 16 19 13 7 -3 13 -2 13 2 -1 4 -1 14 1 22 1 11 4 9 10 -5 13 -31
12 -45 -5 -39 -8 4 -21 1 -29 -5 -7 -6 -16 -8 -19 -4 -13 13 -6 63 9 63 1 0 1
-15 -1 -32z m660 -3 c0 -19 -3 -35 -7 -35 -5 0 -8 16 -8 35 0 19 4 35 8 35 4
0 7 -16 7 -35z m3475 -220 l0 -255 -30 0 -30 0 0 255 0 255 30 0 30 0 0 -255z
m-5003 191 c-10 -25 -37 -19 -37 7 0 13 3 27 7 31 11 11 36 -21 30 -38z m27
29 c-4 -8 -1 -15 5 -15 6 0 11 -7 11 -15 0 -8 -8 -15 -17 -15 -15 0 -16 2 -3
10 10 6 11 10 3 10 -7 0 -13 9 -13 20 0 11 4 20 10 20 5 0 7 -7 4 -15z m248
-25 c6 0 8 8 6 18 -4 14 1 18 21 20 18 1 22 -1 13 -7 -11 -7 -11 -9 2 -14 21
-8 21 -27 0 -27 -8 0 -12 5 -9 10 3 6 2 10 -4 10 -5 0 -13 -4 -16 -10 -13 -21
-35 -10 -34 18 2 23 2 24 6 5 2 -13 9 -23 15 -23z m363 30 c-3 -5 -10 -10 -16
-10 -5 0 -9 5 -9 10 0 6 7 10 16 10 8 0 12 -4 9 -10z m74 -21 c-13 -24 -14
-24 -14 5 0 14 5 22 12 19 9 -4 10 -10 2 -24z m-509 -10 c0 -10 -7 -19 -15
-19 -8 0 -15 5 -15 11 0 5 4 8 9 4 6 -3 8 4 6 15 -2 11 0 18 6 15 5 -4 9 -15
9 -26z m27 4 c1 -22 -1 -24 -8 -10 -6 9 -7 22 -4 27 9 14 10 13 12 -17z m173
13 c0 -8 -7 -16 -15 -20 -10 -4 -15 1 -15 14 0 11 7 20 15 20 8 0 15 -6 15
-14z m40 -6 c0 -11 -7 -20 -15 -20 -8 0 -15 5 -15 10 0 6 6 10 13 10 8 0 7 4
-3 10 -13 8 -12 10 3 10 10 0 17 -8 17 -20z m30 10 c-13 -9 -13 -11 0 -20 9
-6 10 -10 3 -10 -15 0 -26 17 -18 30 3 6 12 10 18 10 7 0 6 -4 -3 -10z m50
-10 c0 -11 -5 -20 -11 -20 -5 0 -7 5 -3 11 3 6 0 15 -7 20 -11 7 -10 9 4 9 10
0 17 -8 17 -20z m31 5 c7 19 8 18 8 -3 1 -28 -23 -25 -26 4 -2 17 -1 17 4 -1
l6 -20 8 20z m49 -17 c0 -5 -7 -3 -15 6 -8 8 -15 18 -15 22 0 3 7 1 15 -6 8
-7 15 -17 15 -22z m196 21 c3 -6 1 -16 -6 -22 -10 -9 -11 -9 -5 2 4 8 2 17 -6
22 -9 6 -10 9 -2 9 6 0 15 -5 19 -11z m-626 -6 c-1 -30 -43 -39 -48 -10 -3 13
3 17 22 17 14 0 26 -3 26 -7z m5171 -8 c30 -16 49 -49 49 -86 0 -15 -7 -19
-35 -19 -29 0 -36 4 -41 26 -5 20 -12 24 -32 22 -14 -2 -30 -11 -36 -20 -13
-21 12 -52 64 -78 62 -32 84 -64 84 -124 1 -44 -4 -59 -23 -80 -49 -52 -149
-45 -188 13 -13 19 -23 45 -23 57 0 20 5 24 30 24 17 0 33 1 38 3 4 1 9 -9 11
-23 4 -29 17 -40 48 -40 24 0 38 29 28 59 -3 10 -30 34 -59 51 -61 38 -86 73
-86 125 0 48 15 74 53 90 42 19 81 18 118 0z m1376 -5 c23 -13 35 -31 43 -61
15 -55 8 -69 -35 -69 -29 0 -35 4 -35 21 0 31 -18 59 -39 59 -35 0 -42 -23
-39 -140 3 -95 6 -115 21 -124 27 -17 51 4 55 48 3 36 4 37 40 34 36 -3 37 -4
36 -41 -3 -73 -46 -117 -117 -117 -46 0 -100 38 -108 75 -4 17 -7 75 -7 130 0
133 6 154 47 182 42 28 95 30 138 3z m1123 5 c34 -18 63 -66 58 -98 -2 -16
-11 -23 -33 -25 -27 -3 -33 2 -45 30 -17 38 -48 48 -67 22 -16 -22 -18 -206
-3 -235 23 -41 80 -11 80 42 0 24 -4 29 -25 29 -21 0 -25 5 -25 30 l0 30 60 0
60 0 0 -105 0 -105 -25 0 c-14 0 -25 4 -25 9 0 6 -12 3 -27 -5 -16 -7 -39 -14
-53 -14 -37 0 -88 35 -97 67 -14 48 -9 265 5 291 26 46 108 65 162 37z m-8435
-36 c-7 -20 -8 -21 -17 -5 -5 9 -7 24 -4 33 10 26 29 -1 21 -28z m26 14 c-12
-20 -14 -14 -5 12 4 9 9 14 11 11 3 -2 0 -13 -6 -23z m52 7 c-3 -12 -8 -19
-11 -16 -5 6 5 36 12 36 2 0 2 -9 -1 -20z m3764 -46 c6 -34 18 -76 25 -95 l14
-33 18 69 c10 39 21 82 23 98 5 25 8 27 59 27 l54 0 0 -195 0 -195 -35 0 -34
0 -3 128 -3 127 -18 -80 c-37 -159 -35 -155 -66 -155 -30 0 -30 -1 -73 180
l-13 55 -3 -127 -3 -128 -34 0 -35 0 0 195 0 196 57 -3 57 -3 13 -61z m419 29
c3 -21 16 -83 29 -138 13 -55 26 -118 30 -140 4 -22 9 -48 12 -58 4 -16 -1
-18 -39 -15 -42 3 -43 4 -46 41 -3 36 -4 37 -42 37 -40 0 -50 -11 -50 -56 0
-21 -4 -24 -40 -24 l-40 0 6 48 c3 26 16 94 29 152 13 58 27 124 30 148 l7 42
53 0 54 0 7 -37z m192 -15 l20 -53 23 53 c22 50 25 52 61 52 21 0 38 -3 38 -6
0 -3 -16 -42 -35 -85 -19 -44 -35 -87 -35 -95 0 -8 18 -57 40 -109 l39 -95
-42 0 -42 0 -24 61 -25 61 -25 -61 c-24 -60 -25 -61 -63 -61 -45 0 -45 5 -5
90 50 106 50 128 1 221 -8 16 -19 40 -24 54 -9 24 -8 25 34 25 43 0 43 0 64
-52z m392 22 c0 -28 -2 -30 -40 -30 l-40 0 0 -165 0 -165 -40 0 -40 0 0 165 0
165 -35 0 c-32 0 -35 2 -35 30 l0 30 115 0 115 0 0 -30z m240 0 c0 -29 -1 -29
-62 -32 l-63 -3 -3 -47 -3 -48 55 0 c56 0 56 0 56 -30 0 -30 -1 -30 -55 -30
l-55 0 0 -49 c0 -46 1 -49 31 -55 17 -3 47 -6 65 -6 31 0 34 -3 34 -30 l0 -30
-100 0 -100 0 0 158 c0 86 -3 174 -6 195 l-7 37 107 0 106 0 0 -30z m224 20
c57 -21 73 -113 31 -174 l-26 -38 29 -84 29 -84 -43 0 c-42 0 -43 1 -55 43
-22 82 -35 112 -49 112 -12 0 -16 -18 -18 -77 l-3 -78 -39 0 -40 0 0 195 0
195 79 0 c44 0 91 -4 105 -10z m806 -143 c0 -158 4 -177 42 -177 31 0 40 46
36 193 l-3 137 38 0 37 0 0 -160 c0 -181 -8 -210 -61 -229 -68 -23 -130 -6
-153 44 -13 26 -16 68 -16 189 l0 156 40 0 40 0 0 -153z m411 124 c26 -26 29
-36 29 -91 0 -55 -3 -65 -29 -91 -24 -24 -38 -29 -75 -29 l-46 0 0 -75 0 -75
-40 0 -40 0 0 195 0 195 86 0 c81 0 87 -1 115 -29z m279 -1 l0 -30 -65 0 -65
0 0 -50 0 -50 55 0 c54 0 55 0 55 -30 0 -30 0 -30 -56 -30 l-55 0 3 -52 3 -53
63 -3 c61 -3 62 -3 62 -32 l0 -30 -100 0 -100 0 0 195 0 195 100 0 100 0 0
-30z m224 20 c57 -21 75 -126 31 -178 l-25 -30 28 -86 28 -86 -42 0 -43 0 -17
58 c-25 87 -32 102 -49 102 -12 0 -15 -15 -15 -80 l0 -80 -40 0 -40 0 0 195 0
195 79 0 c44 0 91 -4 105 -10z m456 -70 l0 -80 40 0 40 0 0 80 0 80 40 0 40 0
0 -195 0 -195 -40 0 -40 0 0 85 0 85 -40 0 -40 0 0 -85 0 -85 -40 0 -40 0 0
195 0 195 40 0 40 0 0 -80z m414 -102 c21 -101 41 -189 43 -195 4 -9 -7 -13
-36 -13 -42 0 -44 2 -55 53 -6 24 -11 27 -45 27 -38 0 -39 -1 -46 -40 -7 -39
-8 -40 -46 -40 -21 0 -39 3 -39 6 0 3 11 53 24 112 14 59 32 144 42 190 l17
82 52 0 51 0 38 -182z m292 147 c34 -42 33 -112 -1 -153 l-25 -30 25 -73 c33
-97 33 -99 -14 -99 -38 0 -40 1 -54 48 -9 26 -19 62 -22 80 -5 23 -12 32 -26
32 -17 0 -19 -8 -19 -80 l0 -80 -40 0 -40 0 0 196 0 196 96 -4 c93 -3 97 -4
120 -33z m564 5 l0 -30 -65 0 -65 0 0 -50 0 -50 56 0 c54 0 55 0 52 -27 -3
-26 -7 -28 -55 -31 l-53 -3 0 -55 0 -54 65 0 65 0 0 -30 0 -30 -105 0 -105 0
0 195 0 195 105 0 105 0 0 -30z m-8828 -22 c-6 -6 -7 0 -4 19 5 21 7 23 10 9
2 -10 0 -22 -6 -28z m25 5 c-3 -10 -5 -4 -5 12 0 17 2 24 5 18 2 -7 2 -21 0
-30z m1320 21 c-3 -3 -12 -4 -19 -1 -8 3 -5 6 6 6 11 1 17 -2 13 -5z m1600
-26 c-3 -7 -5 -2 -5 12 0 14 2 19 5 13 2 -7 2 -19 0 -25z m-200 7 c0 -8 -4
-12 -9 -9 -5 3 -6 10 -3 15 9 13 12 11 12 -6z m-548 -32 c-1 -37 -1 -37 -8 -8
-7 28 -5 45 5 45 2 0 3 -17 3 -37z m-497 2 c3 -13 1 -22 -3 -19 -9 5 -13 44
-5 44 2 0 6 -11 8 -25z m-752 -5 c0 -11 0 -23 0 -27 0 -5 -6 -9 -12 -11 -7 -2
-6 1 2 7 10 7 11 11 3 11 -7 0 -10 7 -6 17 5 12 3 14 -7 8 -9 -5 -11 -4 -6 3
11 19 26 14 26 -8z m84 -2 c3 -13 0 -27 -6 -33 -8 -7 -9 -6 -3 4 6 11 4 13 -8
8 -12 -4 -17 -1 -17 12 0 36 25 42 34 9z m68 13 c-11 -7 -11 -9 2 -14 10 -4
16 -1 16 9 0 24 33 12 36 -13 2 -12 -1 -25 -6 -28 -6 -3 -7 1 -4 9 4 11 0 16
-11 16 -9 0 -14 -4 -11 -9 6 -10 -24 -25 -32 -16 -3 3 0 5 6 5 7 0 12 5 12 10
0 6 -7 10 -15 10 -16 0 -20 12 -8 23 3 4 11 7 17 7 6 0 5 -4 -2 -9z m131 -10
c3 -11 2 -22 -1 -25 -9 -10 -32 -7 -32 5 0 5 4 8 9 5 5 -4 7 3 4 14 -3 11 -1
20 5 20 5 0 12 -9 15 -19z m76 -14 c-1 -20 -2 -20 -9 3 l-8 25 -2 -25 c-1 -14
-4 -19 -7 -12 -7 18 5 44 17 37 5 -3 10 -16 9 -28z m41 2 c0 -10 -7 -19 -15
-19 -8 0 -15 8 -15 18 0 15 2 15 11 2 9 -12 10 -11 6 8 -3 12 -1 20 4 16 5 -3
9 -14 9 -25z m39 4 l-1 -28 -8 25 -8 25 -2 -25 c-1 -14 -4 -19 -7 -12 -6 17 3
42 17 42 5 0 10 -12 9 -27z m33 2 c3 -14 1 -25 -3 -25 -5 0 -9 11 -9 25 0 14
2 25 4 25 2 0 6 -11 8 -25z m43 0 c0 -10 -7 -20 -15 -22 -9 -2 -10 -1 -2 3 13
6 16 30 5 37 -5 2 -3 3 2 2 6 -1 10 -10 10 -20z m26 -2 c-12 -20 -14 -14 -5
12 4 9 9 14 11 11 3 -2 0 -13 -6 -23z m38 10 c1 10 9 17 19 17 25 0 32 -8 25
-28 -6 -13 -8 -13 -14 4 -7 17 -8 17 -8 2 -1 -11 -9 -18 -21 -18 -14 0 -20 6
-19 23 0 21 1 21 9 2 7 -17 9 -17 9 -2z m131 7 c0 -5 -12 -10 -27 -10 -22 0
-25 -3 -13 -10 12 -7 10 -9 -7 -8 -24 2 -20 24 5 31 30 8 42 7 42 -3z m84 -22
c7 -5 4 -8 -6 -8 -12 0 -18 7 -17 23 0 15 2 17 6 7 3 -8 11 -18 17 -22z m30
17 c-4 -8 -8 -15 -10 -15 -2 0 -4 7 -4 15 0 8 4 15 10 15 5 0 7 -7 4 -15z
m-1114 -5 c7 11 9 6 9 -20 -1 -19 -3 -27 -6 -17 -5 18 -5 18 -19 0 -12 -16
-13 -15 -14 17 0 26 3 31 10 20 9 -13 11 -13 20 0z m166 -25 c1 -14 1 -25 -2
-25 -8 0 -22 45 -17 53 8 13 16 0 19 -28z m-116 -6 c0 -10 -7 -19 -15 -19 -13
0 -14 12 -6 48 3 12 21 -13 21 -29z m34 7 c-5 -14 -9 -15 -15 -5 -5 8 -3 17 4
21 15 9 19 4 11 -16z m46 5 c0 -23 -16 -36 -25 -21 -9 14 1 40 15 40 5 0 10
-9 10 -19z m-595 -25 c0 -15 -4 -21 -9 -16 -5 5 -6 16 -3 24 9 22 12 20 12 -8z
m90 14 c2 -3 -1 -12 -7 -20 -8 -12 -9 -12 -4 3 7 24 -11 22 -24 -3 -6 -11 -15
-20 -21 -20 -6 0 -3 8 7 17 12 12 13 18 4 21 -7 3 -16 -2 -21 -9 -5 -8 -9 -9
-9 -3 0 6 3 13 6 17 8 8 64 6 69 -3z m45 4 c0 -8 -19 -13 -24 -6 -3 5 1 9 9 9
8 0 15 -2 15 -3z m-604 -17 c14 17 15 16 8 -7 -3 -14 -8 -27 -11 -30 -6 -7
-23 23 -22 40 1 10 3 9 6 -3 5 -18 5 -18 19 0z m54 5 c0 -5 -7 -17 -15 -28
-14 -18 -14 -18 -15 4 0 13 4 20 10 17 6 -3 10 -1 10 4 0 6 2 11 5 11 3 0 5
-4 5 -8z m68 -17 c-1 -14 -6 -25 -11 -25 -5 0 -6 7 -3 16 3 9 6 20 6 25 0 5 2
9 5 9 3 0 4 -11 3 -25z m52 9 c0 -8 -5 -12 -10 -9 -6 4 -8 11 -5 16 9 14 15
11 15 -7z m241 -11 c-8 -15 -10 -15 -11 -2 0 17 10 32 18 25 2 -3 -1 -13 -7
-23z m-464 -5 c-3 -8 -6 -5 -6 6 -1 11 2 17 5 13 3 -3 4 -12 1 -19z m139 10
c4 -7 3 -8 -4 -4 -7 4 -12 0 -12 -10 0 -10 -3 -15 -6 -11 -7 6 2 37 10 37 3 0
8 -5 12 -12z m2381 -50 c-2 -13 -4 -5 -4 17 -1 22 1 32 4 23 2 -10 2 -28 0
-40z m-1055 25 c-10 -4 -8 -8 5 -18 14 -11 16 -16 6 -26 -11 -11 -15 -11 -25
0 -11 10 -10 11 5 6 9 -4 17 -3 17 3 0 5 -7 13 -16 16 -17 6 -10 26 9 25 8 0
8 -2 -1 -6z m88 -17 c0 -14 -3 -27 -7 -29 -5 -3 -8 8 -8 24 0 16 3 29 8 29 4
0 7 -11 7 -24z m40 10 c0 -8 -7 -16 -15 -20 -13 -4 -14 -2 -5 14 13 23 20 26
20 6z m197 -20 c-4 -9 -12 -16 -19 -16 -10 0 -9 3 1 9 9 6 11 16 7 27 -6 15
-4 16 5 7 6 -6 9 -19 6 -27z m-656 -10 c1 5 1 12 1 15 -1 4 13 5 31 4 26 -2
32 -7 34 -26 1 -15 0 -17 -3 -6 -7 21 -20 22 -27 3 -4 -10 -18 -14 -44 -13
-34 3 -38 6 -41 32 l-4 30 26 -24 c14 -14 27 -20 27 -15z m179 9 c0 -14 -2
-25 -4 -25 -2 0 -6 11 -8 25 -3 14 -1 25 3 25 5 0 9 -11 9 -25z m80 10 c0 -8
-2 -15 -4 -15 -2 0 -6 7 -10 15 -3 8 -1 15 4 15 6 0 10 -7 10 -15z m269 4
c-12 -8 -12 -10 1 -19 12 -8 9 -10 -12 -10 -16 0 -28 6 -29 13 0 10 -2 10 -6
0 -2 -7 -9 -13 -15 -13 -24 0 22 35 48 37 19 1 23 -1 13 -8z m51 -10 c0 -11
-4 -17 -10 -14 -5 3 -10 13 -10 21 0 8 5 14 10 14 6 0 10 -9 10 -21z m30 11
c-13 -9 -13 -11 0 -21 13 -9 13 -10 0 -6 -22 6 -25 37 -3 37 15 0 16 -2 3 -10z
m-750 -27 c0 -20 -3 -24 -9 -14 -7 11 -9 11 -14 0 -3 -8 -6 -2 -6 14 -1 18 4
27 14 27 10 0 15 -10 15 -27z m75 -3 c1 -11 -2 -20 -6 -20 -9 0 -19 37 -11 44
8 9 16 -2 17 -24z m-342 2 c-10 -10 -20 -14 -22 -9 -2 5 3 13 10 18 24 15 30
10 12 -9z m307 -2 c0 -11 -7 -20 -15 -20 -8 0 -15 9 -15 20 0 11 7 20 15 20 8
0 15 -9 15 -20z m-633 -27 c-3 -10 -5 -4 -5 12 0 17 2 24 5 18 2 -7 2 -21 0
-30z m113 27 c0 -5 -2 -10 -4 -10 -3 0 -8 5 -11 10 -3 6 -1 10 4 10 6 0 11 -4
11 -10z m43 -10 c-10 -11 -19 -20 -21 -20 -1 0 2 9 8 20 6 11 15 20 20 20 6 0
2 -9 -7 -20z m48 11 c6 10 8 7 6 -9 0 -12 -5 -22 -9 -22 -4 0 -8 2 -8 4 0 2
-2 10 -3 18 -2 7 -2 9 1 4 2 -4 8 -2 13 5z m169 -19 c0 -15 -2 -15 -10 -2 -13
20 -13 33 0 25 6 -3 10 -14 10 -23z m-488 -12 c-5 -23 -6 -23 -13 -5 -8 20 -8
20 -9 0 -1 -13 -3 -15 -7 -6 -5 11 -7 11 -14 0 -6 -10 -9 -7 -9 11 -1 24 -1
24 -12 5 -16 -29 -16 -29 -33 -12 -20 21 -19 27 5 22 11 -2 22 0 25 4 2 5 20
8 38 7 30 -1 33 -4 29 -26z m58 3 c0 -22 -2 -25 -10 -13 -9 13 -10 13 -10 0 0
-13 -1 -13 -10 0 -8 12 -10 12 -10 1 0 -8 -2 -12 -5 -9 -9 8 6 38 16 32 5 -3
9 0 9 5 0 6 5 11 10 11 6 0 10 -12 10 -27z m35 7 c0 -7 -5 -15 -12 -17 -7 -3
-11 4 -10 16 1 23 22 23 22 1z m65 10 c0 8 3 11 6 7 3 -3 2 -12 -3 -21 -7 -13
-11 -12 -22 7 -13 20 -13 21 2 8 14 -11 17 -11 17 -1z m40 -10 c0 -11 -2 -20
-4 -20 -2 0 -6 9 -9 20 -3 11 -1 20 4 20 5 0 9 -9 9 -20z m917 14 c-3 -3 -12
-4 -19 -1 -8 3 -5 6 6 6 11 1 17 -2 13 -5z m-1462 -32 c0 -33 -20 -31 -23 2
-3 20 0 27 10 24 7 -3 13 -14 13 -26z m34 -17 c0 -5 -4 -3 -9 5 -5 8 -9 22 -9
30 0 16 17 -16 18 -35z m37 28 c7 -10 13 -22 13 -28 0 -5 -4 -2 -10 8 -5 9
-14 17 -19 17 -5 0 -7 -8 -4 -17 5 -15 4 -16 -5 -3 -25 35 -1 57 25 23z m63
10 c0 -5 -4 -17 -9 -28 -8 -18 -9 -17 -9 8 -1 15 4 27 9 27 6 0 10 -3 9 -7z
m38 -25 c-3 -7 -5 -2 -5 12 0 14 2 19 5 13 2 -7 2 -19 0 -25z m45 10 c-5 -21
-6 -21 -12 -2 -7 17 -8 17 -12 -6 -5 -25 -5 -25 -7 3 -1 20 4 27 18 27 15 0
18 -5 13 -22z m538 12 c0 -5 -4 -10 -9 -10 -6 0 -13 5 -16 10 -3 6 1 10 9 10
9 0 16 -4 16 -10z m-110 -4 c0 -3 -4 -8 -10 -11 -5 -3 -10 -1 -10 4 0 6 5 11
10 11 6 0 10 -2 10 -4z m-493 -28 c-3 -8 -6 -5 -6 6 -1 11 2 17 5 13 3 -3 4
-12 1 -19z m1263 -2 c0 -2 -7 -7 -16 -10 -8 -3 -12 -2 -9 4 6 10 25 14 25 6z
m110 -11 c-7 -9 -10 -19 -6 -22 4 -4 11 -1 16 7 8 13 10 12 10 -3 0 -12 -6
-17 -17 -15 -10 1 -23 -1 -29 -5 -17 -10 -35 15 -24 33 8 12 10 9 11 -10 0
-16 3 -20 6 -10 6 13 32 39 42 40 2 0 -2 -7 -9 -15z m49 -12 c0 -25 -1 -25 -8
-8 -5 11 -7 23 -4 28 8 14 13 7 12 -20z m34 5 c-4 -19 -3 -20 7 -8 9 12 11 12
8 1 -7 -26 -28 -24 -28 3 0 14 4 26 9 26 5 0 7 -10 4 -22z m2195 15 c-21 -2
-57 -2 -80 0 -24 2 -7 4 37 4 44 0 63 -2 43 -4z m-2757 -53 c5 0 8 8 6 18 -2
18 3 22 28 22 9 0 15 -9 15 -24 0 -21 -5 -24 -35 -24 -33 0 -35 2 -34 32 2 30
2 30 6 4 2 -16 8 -28 14 -28z m88 3 c1 -7 -3 -13 -9 -13 -5 0 -10 15 -9 33 0
27 2 29 9 12 5 -11 9 -26 9 -32z m41 11 c0 -35 -17 -30 -18 6 0 17 4 28 9 25
5 -4 9 -17 9 -31z m2280 32 c0 -3 -4 -8 -10 -11 -5 -3 -10 -1 -10 4 0 6 5 11
10 11 6 0 10 -2 10 -4z m103 -3 c-13 -2 -33 -2 -45 0 -13 2 -3 4 22 4 25 0 35
-2 23 -4z m-2333 -14 c0 -5 -4 -7 -10 -4 -5 3 -10 -1 -10 -10 0 -10 5 -13 12
-9 7 4 8 3 4 -5 -10 -16 -26 -4 -26 20 0 10 7 19 15 19 8 0 15 -5 15 -11z m40
-8 c0 -22 -17 -37 -28 -26 -4 4 -1 10 6 12 6 3 12 9 12 14 0 6 -4 7 -10 4 -5
-3 -10 -1 -10 4 0 6 7 11 15 11 8 0 15 -9 15 -19z m34 3 c8 -22 8 -24 -7 -24
-7 0 -13 9 -14 20 -2 24 12 27 21 4z m122 -13 c-4 -6 -13 -11 -19 -11 -8 0 -7
3 2 9 8 5 10 14 6 22 -6 11 -5 11 5 2 7 -6 9 -16 6 -22z m1794 25 c0 -2 -7 -7
-16 -10 -8 -3 -12 -2 -9 4 6 10 25 14 25 6z m188 -3 c-10 -2 -28 -2 -40 0 -13
2 -5 4 17 4 22 1 32 -1 23 -4z m369 -15 c-3 -8 -6 -5 -6 6 -1 11 2 17 5 13 3
-3 4 -12 1 -19z m-3059 -2 c6 -4 12 -2 12 3 0 6 4 11 10 11 6 0 5 -10 -2 -25
-7 -16 -14 -21 -19 -14 -5 8 -8 7 -12 -2 -5 -11 -9 -10 -20 4 -15 18 -16 17
-22 -4 l-8 -23 -19 25 -20 24 28 5 c37 7 56 6 72 -4z m82 -16 c-1 -24 -1 -24
-15 -6 -15 20 -15 20 -15 0 0 -16 -2 -17 -10 -4 -8 12 -10 12 -10 1 0 -8 -3
-12 -6 -9 -11 12 16 47 36 45 14 -1 20 -8 20 -27z m2276 23 c-4 -5 -11 -8 -14
-8 -4 0 -13 -4 -20 -9 -7 -4 -18 -3 -25 2 -7 5 -30 9 -52 8 -36 -2 -41 -6 -46
-32 -5 -21 -7 -23 -8 -8 -1 13 -10 24 -23 28 -35 9 -111 7 -128 -4 -9 -5 -19
-5 -27 2 -8 6 -27 7 -50 3 -21 -5 -46 -7 -57 -6 -31 4 -64 -8 -69 -27 -4 -14
-5 -13 -6 4 -1 18 -7 20 -53 18 -29 -1 -59 -2 -65 -3 -7 0 -13 -12 -13 -26 0
-21 5 -25 30 -25 17 0 34 7 40 18 11 16 11 16 6 0 -7 -24 9 -31 25 -12 12 14
14 14 26 -2 7 -10 13 -14 13 -8 0 5 24 10 53 11 28 2 63 5 75 8 15 4 21 2 17
-5 -4 -6 6 -10 27 -10 28 1 318 18 355 22 6 1 8 8 5 17 -5 14 -3 14 20 -1 23
-15 48 -16 204 -13 106 3 171 1 159 -4 -11 -5 -24 -6 -28 -4 -4 3 -15 -1 -24
-9 -12 -9 -15 -9 -9 0 4 7 1 12 -8 12 -10 0 -16 -9 -16 -24 0 -22 4 -23 61
-25 l61 -1 -4 28 c-2 16 1 29 6 29 6 1 45 4 86 8 41 4 73 4 70 1 -3 -3 -30 -7
-60 -9 -37 -3 -55 -9 -56 -18 -1 -8 -2 -21 -3 -30 -1 -15 -22 -18 -148 -23
-519 -23 -829 -40 -940 -52 l-53 -5 0 84 0 84 223 10 c296 13 452 15 443 6z
m34 3 c0 -3 -4 -8 -10 -11 -5 -3 -10 -1 -10 4 0 6 5 11 10 11 6 0 10 -2 10 -4z
m50 0 c0 -2 -7 -9 -15 -16 -13 -11 -14 -10 -9 4 5 14 24 23 24 12z m-2645 -24
c-3 -8 -5 -18 -5 -22 0 -5 -9 -7 -20 -5 -11 2 -20 0 -20 -4 0 -13 -41 -5 -51
10 -11 17 -12 32 -1 26 4 -3 15 -2 25 2 33 12 78 7 72 -7z m55 9 c0 -5 3 -16
6 -25 9 -22 -22 -21 -36 2 -11 16 -11 16 -6 0 3 -10 1 -18 -4 -18 -11 0 -13
11 -4 34 6 17 44 23 44 7z m50 -10 c14 -26 13 -29 -7 -27 -20 1 -33 14 -33 34
0 19 28 14 40 -7z m2865 9 c3 -5 -1 -10 -10 -10 -9 0 -13 5 -10 10 3 6 8 10
10 10 2 0 7 -4 10 -10z m-3177 -12 c8 -8 12 -8 12 -1 0 15 73 14 82 0 14 -23
8 -33 -22 -35 -23 -2 -30 2 -31 15 -1 17 -2 17 -6 1 -2 -10 -13 -18 -24 -18
-11 0 -19 7 -20 18 0 14 -2 14 -9 -3 -5 -11 -9 -16 -9 -11 -1 5 -8 2 -17 -5
-15 -12 -16 -11 -9 11 12 38 32 49 53 28z m-162 -23 c1 -17 -3 -23 -17 -22
-10 1 -19 6 -19 12 0 5 -5 3 -10 -5 -9 -13 -10 -13 -11 0 0 10 -3 8 -9 -5 -5
-11 -9 -14 -9 -7 -1 7 -5 10 -11 7 -5 -3 -10 0 -10 7 -1 8 -6 6 -15 -6 -11
-14 -15 -16 -15 -5 0 12 -2 12 -10 -1 -9 -13 -11 -13 -20 0 -9 13 -10 13 -10
0 0 -13 -1 -13 -10 0 -6 10 -10 11 -10 3 0 -7 -4 -13 -10 -13 -5 0 -10 11 -10
25 0 16 6 25 15 25 8 0 15 -6 15 -12 0 -9 2 -10 8 -2 9 14 31 19 107 21 56 1
60 0 61 -22z m104 11 c0 -20 -19 -31 -57 -31 -30 -1 -50 16 -39 34 3 4 25 8
50 10 35 1 46 -2 46 -13z m2742 -4 c4 -13 -1 -18 -16 -19 -12 -1 -15 1 -8 4 6
3 12 11 12 19 0 20 7 18 12 -4z m75 -4 c-3 -8 -6 -5 -6 6 -1 11 2 17 5 13 3
-3 4 -12 1 -19z m-3142 -9 c4 -11 4 -23 1 -26 -3 -4 -6 0 -6 8 0 11 -2 11 -10
-1 -8 -12 -10 -9 -10 13 0 32 16 36 25 6z m3022 -1 c-3 -8 -6 -5 -6 6 -1 11 2
17 5 13 3 -3 4 -12 1 -19z m-1359 -10 c2 -10 -1 -18 -7 -18 -6 0 -8 7 -5 15 4
8 1 15 -5 15 -7 0 -14 -7 -17 -15 -4 -8 -10 -15 -16 -15 -5 0 -6 5 -3 10 3 6
1 10 -5 10 -6 0 -9 4 -6 8 10 16 61 8 64 -10z m26 11 c-3 -6 -1 -15 6 -19 7
-4 9 -13 6 -19 -13 -21 -26 -11 -26 19 0 17 5 30 11 30 5 0 7 -5 3 -11z m39
-16 l-4 -28 16 28 c9 15 21 27 28 27 9 0 8 -3 -1 -9 -11 -7 -11 -9 1 -14 9 -3
18 1 21 9 3 8 11 14 18 14 10 0 10 -2 0 -9 -11 -7 -10 -9 3 -15 18 -6 12 -26
-8 -26 -7 0 -6 4 3 10 13 8 12 10 -2 10 -10 0 -18 -4 -18 -10 0 -5 -8 -10 -17
-10 -15 0 -16 2 -3 10 13 8 13 10 -1 10 -9 0 -20 -7 -23 -16 -3 -8 -10 -12
-16 -9 -12 8 -13 55 -1 55 4 0 6 -12 4 -27z m127 2 c0 -14 -5 -25 -11 -25 -6
0 -8 9 -4 21 5 16 4 19 -5 14 -9 -5 -11 -4 -6 3 12 20 26 13 26 -13z m1913
-22 c-3 -8 2 -13 16 -13 16 0 21 6 21 25 0 23 2 24 20 15 11 -6 25 -8 31 -4 6
3 9 -2 7 -12 -4 -25 -29 -32 -113 -32 -38 1 -57 3 -42 5 19 3 31 13 38 31 8
20 12 23 19 13 4 -8 6 -20 3 -28z m-2515 -1 c8 -23 7 -29 -4 -29 -9 0 -14 11
-14 29 0 15 2 28 4 28 2 0 8 -13 14 -28z m-108 3 c0 -8 -4 -15 -10 -15 -5 0
-10 -8 -10 -17 -1 -17 -1 -17 -11 0 -6 10 -8 25 -5 33 7 19 36 18 36 -1z m277
-5 c-1 -11 -5 -20 -9 -20 -11 0 -20 19 -13 30 11 17 24 11 22 -10z m43 0 c0
-11 -5 -20 -11 -20 -5 0 -7 5 -4 10 3 6 1 10 -5 10 -6 0 -8 5 -5 10 10 17 25
11 25 -10z m-280 -9 c0 -22 -26 -35 -36 -19 -4 7 -2 14 4 16 7 2 10 8 6 13 -3
5 2 9 10 9 9 0 16 -8 16 -19z m30 9 c-13 -9 -13 -11 0 -20 13 -8 12 -10 -2
-10 -11 0 -18 8 -18 20 0 12 7 20 18 20 14 0 15 -2 2 -10z m90 -10 c0 -11 -7
-20 -15 -20 -8 0 -15 5 -15 11 0 5 6 7 13 3 8 -5 8 -2 -2 9 -12 15 -11 17 3
17 9 0 16 -8 16 -20z m17 -12 c-3 -7 -5 -2 -5 12 0 14 2 19 5 13 2 -7 2 -19 0
-25z m20 0 c-3 -7 -5 -2 -5 12 0 14 2 19 5 13 2 -7 2 -19 0 -25z m43 7 c0 -17
-5 -25 -17 -25 -15 0 -16 2 -3 10 10 6 11 10 3 10 -7 0 -13 7 -13 15 0 8 7 15
15 15 9 0 15 -9 15 -25z m-650 2 c0 -4 6 -5 13 0 24 15 47 13 48 -5 1 -16 2
-16 6 1 7 25 33 21 33 -5 0 -20 -6 -23 -45 -26 -31 -1 -45 2 -45 10 0 9 -3 8
-10 -2 -5 -8 -10 -10 -10 -5 0 6 -5 3 -11 -5 -9 -12 -10 -11 -6 8 3 12 1 22
-4 22 -5 0 -9 -6 -9 -14 0 -21 -40 -28 -40 -8 -1 15 -2 15 -14 -1 -10 -13 -16
-15 -21 -7 -6 9 -10 9 -16 -1 -6 -10 -9 -7 -9 11 0 22 4 26 28 25 15 0 38 2
52 6 33 8 60 7 60 -4z m850 9 c0 -3 -4 -8 -10 -11 -5 -3 -10 -1 -10 4 0 6 5
11 10 11 6 0 10 -2 10 -4z m37 -2 c-3 -3 -12 -4 -19 -1 -8 3 -5 6 6 6 11 1 17
-2 13 -5z m40 0 c-3 -3 -12 -4 -19 -1 -8 3 -5 6 6 6 11 1 17 -2 13 -5z m-1118
-36 c0 -28 -2 -30 -9 -13 -5 11 -9 16 -9 11 -1 -5 -9 -2 -18 5 -15 12 -16 12
-11 -3 4 -9 1 -19 -7 -22 -10 -3 -12 0 -9 12 5 14 3 13 -10 -2 -12 -15 -16
-16 -16 -5 0 12 -2 12 -10 -1 -8 -12 -10 -12 -11 5 l0 20 -9 -20 -9 -20 -1 20
c-2 18 -3 18 -7 2 -3 -12 -10 -16 -24 -12 -12 4 -19 2 -19 -6 0 -7 -2 -10 -5
-8 -2 3 0 18 4 35 5 16 10 21 10 12 1 -9 5 -19 10 -22 5 -3 8 2 7 12 -1 15 9
17 72 17 39 0 72 3 72 7 0 4 2 8 5 8 3 0 5 -15 4 -32z m41 13 c0 -10 -7 -21
-15 -25 -11 -4 -15 1 -15 19 0 16 6 25 15 25 8 0 15 -9 15 -19z m-382 -29 c0
-12 -4 -25 -9 -28 -5 -3 -9 0 -9 7 0 8 -4 8 -16 -2 -13 -10 -17 -10 -25 2 -7
12 -9 12 -9 -1 0 -12 -2 -12 -9 -1 -6 10 -10 10 -16 1 -5 -8 -11 -6 -21 7 -13
17 -14 17 -7 -2 6 -18 5 -18 -10 -6 -14 11 -17 11 -17 0 0 -11 -2 -11 -10 1
-6 10 -10 11 -10 3 0 -7 -7 -13 -16 -13 -11 0 -14 6 -10 23 l6 22 -11 -22
c-10 -19 -39 -33 -39 -19 0 2 -3 12 -7 22 -4 12 -3 15 5 10 7 -4 12 -3 12 3 0
6 34 10 86 10 47 0 87 1 89 3 2 2 14 3 28 3 19 0 25 -5 25 -23z m32 18 c0 13
1 13 10 0 5 -8 10 -10 10 -4 0 6 21 11 50 11 51 1 63 -10 38 -35 -9 -9 -14 -7
-25 6 -11 14 -12 14 -8 1 4 -10 0 -16 -10 -16 -9 0 -14 6 -11 14 3 8 2 12 -3
8 -5 -3 -12 1 -14 7 -3 7 -6 3 -6 -8 -1 -16 -7 -21 -23 -20 -27 1 -38 14 -31
33 5 12 7 12 14 1 7 -10 9 -10 9 2z m1430 -36 c0 -16 -6 -24 -17 -24 -10 0
-14 4 -8 8 14 10 17 32 4 32 -5 0 -7 5 -4 10 10 16 25 1 25 -26z m26 21 c-3
-8 -1 -15 4 -15 6 0 10 -7 10 -15 0 -8 -5 -15 -11 -15 -5 0 -8 4 -5 9 4 5 1
11 -6 13 -11 4 -5 38 8 38 3 0 4 -7 0 -15z m54 -15 c0 -25 -18 -36 -26 -16 -8
21 3 49 16 41 5 -3 10 -15 10 -25z m39 18 c0 -7 -5 -22 -10 -33 -8 -17 -9 -16
-4 7 3 16 0 28 -8 31 -7 3 -5 6 6 6 9 1 17 -5 16 -11z m-159 -34 c0 -13 -4
-24 -8 -24 -5 0 -9 13 -9 30 0 16 4 27 9 24 4 -3 8 -16 8 -30z m-255 11 c6 0
11 -10 13 -22 2 -13 -1 -23 -7 -23 -6 0 -8 6 -5 14 3 7 -2 16 -12 20 -12 4
-15 2 -10 -9 3 -8 1 -15 -4 -15 -6 0 -10 12 -10 26 0 18 4 23 13 17 6 -4 17
-8 22 -8z m1851 -12 c-4 -24 -26 -29 -26 -5 0 10 3 22 6 25 11 10 22 -2 20
-20z m284 15 c0 -4 -4 -8 -9 -8 -6 0 -12 4 -15 8 -3 5 1 9 9 9 8 0 15 -4 15
-9z m-2360 -34 c0 -32 -26 -31 -32 1 -6 29 -1 36 18 28 8 -3 14 -16 14 -29z
m115 6 c1 -11 -2 -20 -7 -20 -4 0 -8 12 -8 27 0 30 13 24 15 -7z m62 -7 c-3
-10 -5 -4 -5 12 0 17 2 24 5 18 2 -7 2 -21 0 -30z m100 17 c-1 -22 -17 -28
-17 -7 0 12 9 27 16 27 2 0 2 -9 1 -20z m90 -5 c1 -16 1 -16 -3 -2 -7 22 -24
22 -24 0 0 -15 -2 -14 -16 3 -13 16 -15 16 -10 2 6 -19 -9 -25 -19 -8 -11 18
4 28 37 27 25 -2 33 -7 35 -22z m1539 -23 c-11 -10 -15 4 -8 28 l7 25 3 -23
c2 -13 1 -26 -2 -30z m32 22 c0 -15 -4 -22 -10 -16 -5 5 -6 16 -2 25 9 23 12
21 12 -9z m-1861 -18 c-4 -9 -12 -16 -19 -16 -10 0 -10 2 1 9 9 6 10 11 2 15
-6 4 -8 12 -5 18 10 15 28 -8 21 -26z m-37 14 c0 -5 -6 -10 -12 -10 -9 0 -8
-4 2 -10 13 -8 12 -10 -2 -10 -11 0 -18 8 -18 20 0 11 7 20 15 20 8 0 15 -4
15 -10z m1385 -28 c-11 -9 -14 -10 -7 -2 15 18 16 34 0 24 -7 -5 -8 -3 -3 5 5
9 10 10 18 2 8 -8 6 -16 -8 -29z m45 -2 c0 -13 -1 -13 -10 0 -5 8 -10 22 -10
30 0 13 1 13 10 0 5 -8 10 -22 10 -30z m27 25 c0 -8 -4 -15 -9 -15 -4 0 -8 7
-8 15 0 8 4 15 8 15 5 0 9 -7 9 -15z m129 -6 c-3 17 -2 21 6 13 16 -16 3 -39
-21 -37 -28 2 -35 11 -27 32 7 16 9 16 27 -7 l21 -25 -6 24z m-2344 -36 c-3
-16 -7 -22 -10 -15 -4 13 4 42 11 42 2 0 2 -12 -1 -27z m3318 23 c0 -3 -4 -8
-10 -11 -5 -3 -10 -1 -10 4 0 6 5 11 10 11 6 0 10 -2 10 -4z m-220 -16 c0 -5
-2 -10 -4 -10 -3 0 -8 5 -11 10 -3 6 -1 10 4 10 6 0 11 -4 11 -10z m-3456 -15
c3 -8 1 -15 -4 -15 -6 0 -10 7 -10 15 0 8 2 15 4 15 2 0 6 -7 10 -15z m373 -7
c-3 -8 -6 -5 -6 6 -1 11 2 17 5 13 3 -3 4 -12 1 -19z m2781 0 c-5 -32 -28 -35
-28 -4 0 17 5 26 16 26 10 0 14 -7 12 -22z m-3208 -23 c0 -5 -5 -3 -10 5 -5 8
-10 20 -10 25 0 6 5 3 10 -5 5 -8 10 -19 10 -25z m91 8 c-12 -20 -14 -14 -5
12 4 9 9 14 11 11 3 -2 0 -13 -6 -23z m2953 18 c8 -12 -4 -41 -16 -41 -6 0 -5
7 3 16 10 13 10 17 -2 25 -9 5 -10 9 -2 9 6 0 14 -4 17 -9z m36 -16 c0 -8 -4
-16 -8 -19 -4 -2 -8 6 -8 19 0 13 4 21 8 19 4 -3 8 -11 8 -19z m-3147 0 c4 -8
3 -16 -1 -19 -4 -3 -9 4 -9 15 -2 23 3 25 10 4z m1348 6 c-9 -6 -10 -10 -2
-16 7 -4 18 -1 26 5 8 6 18 9 24 6 5 -3 11 -1 13 5 6 18 38 -2 37 -25 0 -20
-1 -20 -8 -2 -7 18 -8 18 -14 2 -5 -13 -15 -17 -32 -13 -14 2 -28 0 -31 -4 -9
-15 -26 -10 -21 6 4 8 2 17 -4 20 -12 8 -2 25 14 25 8 0 8 -3 -2 -9z m-122
-12 c-11 -7 -10 -9 4 -9 35 0 10 -25 -26 -27 -33 -2 -37 1 -37 21 0 21 5 24
36 24 25 0 33 -3 23 -9z m1411 -8 c0 -6 -5 -13 -12 -17 -6 -4 -8 -3 -4 4 3 5
0 13 -6 15 -8 3 -6 6 5 6 9 1 17 -3 17 -8z m30 -1 c0 -5 -2 -10 -4 -10 -3 0
-8 5 -11 10 -3 6 -1 10 4 10 6 0 11 -4 11 -10z m149 -11 c-14 -12 -26 -16 -32
-10 -14 14 -2 26 27 27 l27 2 -22 -19z m1952 5 c30 -18 49 -90 49 -184 0 -114
-12 -162 -47 -190 -32 -25 -103 -27 -144 -3 -43 26 -54 64 -54 195 0 103 2
120 21 145 31 42 62 55 117 49 26 -3 52 -8 58 -12z m-369 -69 l24 -75 22 53
c12 29 22 62 22 75 0 19 5 22 45 22 44 0 45 0 34 -27 -67 -173 -72 -192 -78
-278 l-6 -90 -38 0 -38 0 -3 76 c-4 67 -36 189 -66 249 -4 8 -10 27 -14 43 -6
26 -5 27 33 27 l39 0 24 -75z m550 -87 l3 -163 24 -3 c13 -2 28 2 32 10 5 7 9
82 9 166 l0 152 40 0 40 0 0 -160 c0 -209 -14 -240 -109 -240 -107 0 -121 28
-121 240 l0 160 40 0 40 0 2 -162z m403 139 c44 -37 47 -129 6 -174 l-20 -21
29 -87 c31 -93 30 -100 -26 -93 -25 3 -30 11 -54 83 -36 108 -54 108 -58 -2
l-3 -83 -34 0 -35 0 0 200 0 200 84 0 c74 0 88 -3 111 -23z m425 -6 c0 -25 -4
-29 -40 -35 l-40 -6 0 -165 0 -165 -40 0 -40 0 0 164 c0 177 0 176 -56 176
-20 0 -24 5 -24 30 l0 30 120 0 120 0 0 -29z m240 -1 l0 -30 -65 0 -65 0 0
-50 0 -50 55 0 c54 0 55 0 55 -30 0 -30 -1 -30 -55 -30 l-55 0 0 -55 0 -55 65
0 65 0 0 -35 0 -35 -105 0 -105 0 0 200 0 200 105 0 105 0 0 -30z m231 20 c26
-15 49 -62 49 -105 0 -37 -22 -91 -40 -97 -6 -2 2 -37 19 -88 16 -47 27 -88
24 -92 -2 -5 -19 -8 -38 -8 -36 0 -37 3 -79 125 -23 69 -41 51 -44 -42 l-3
-83 -34 0 -35 0 0 200 0 200 81 0 c44 0 89 -5 100 -10z m229 -90 c14 -54 27
-96 31 -92 8 10 49 157 49 176 0 13 11 16 55 16 l55 0 0 -201 0 -200 -37 3
-38 3 3 130 c2 93 0 126 -7 115 -6 -8 -11 -21 -11 -29 0 -8 -10 -50 -21 -93
-21 -78 -22 -79 -52 -76 -28 3 -33 8 -44 51 -42 155 -41 155 -42 20 l-1 -123
-35 0 -35 0 0 103 c0 56 -3 146 -7 200 l-6 97 60 0 59 0 24 -100z m320 -90 c0
-104 0 -193 0 -197 0 -5 -17 -8 -37 -8 l-38 0 -3 198 -2 197 40 0 40 0 0 -190z
m190 83 l45 -108 3 108 3 107 34 0 35 0 0 -200 0 -200 -32 0 c-32 0 -34 3 -83
112 l-50 111 -5 -109 -5 -109 -32 -3 -33 -3 0 200 0 201 38 0 38 0 44 -107z
m349 50 c7 -32 23 -107 36 -168 13 -60 27 -125 30 -142 7 -33 7 -33 -33 -33
-40 0 -41 1 -49 43 -8 41 -10 42 -48 42 -38 0 -40 -1 -48 -42 -8 -40 -10 -43
-42 -43 -19 0 -36 3 -39 8 -2 4 8 61 24 127 15 66 34 153 41 193 l12 72 52 0
51 0 13 -57z m183 -105 l3 -163 63 -3 63 -3 -3 -32 -3 -32 -97 -3 -98 -3 0
201 0 200 35 0 35 0 2 -162z m-5455 115 c-3 -10 -5 -4 -5 12 0 17 2 24 5 18 2
-7 2 -21 0 -30z m1540 22 c0 -8 -4 -12 -9 -9 -5 3 -6 10 -3 15 9 13 12 11 12
-6z m-3042 -20 c0 -14 -3 -25 -7 -25 -10 0 -10 34 -1 43 3 4 7 7 7 7 1 0 1
-11 1 -25z m45 8 c0 -15 -2 -16 -10 -3 -8 12 -10 12 -10 1 0 -8 -3 -12 -6 -8
-8 7 4 27 17 27 5 0 9 -8 9 -17z m27 -2 c0 -11 -5 -18 -9 -15 -4 3 -5 11 -1
19 7 21 12 19 10 -4z m1357 -8 c-10 -40 -15 -42 -12 -5 1 18 6 32 10 32 5 0 5
-12 2 -27z m-1597 -5 c-3 -8 -6 -5 -6 6 -1 11 2 17 5 13 3 -3 4 -12 1 -19z
m42 -5 l-1 -28 -8 25 c-4 14 -8 19 -9 11 -1 -8 -4 -12 -7 -8 -8 7 4 27 17 27
5 0 9 -12 8 -27z m31 12 c0 -8 -2 -15 -4 -15 -2 0 -6 7 -10 15 -3 8 -1 15 4
15 6 0 10 -7 10 -15z m40 9 c0 -8 -19 -13 -24 -6 -3 5 1 9 9 9 8 0 15 -2 15
-3z m1287 -46 c-2 -13 -4 -5 -4 17 -1 22 1 32 4 23 2 -10 2 -28 0 -40z m43 48
c0 -2 -7 -7 -16 -10 -8 -3 -12 -2 -9 4 6 10 25 14 25 6z m33 -3 c-7 -2 -13
-11 -13 -19 0 -8 -3 -13 -7 -13 -20 3 -26 -2 -13 -11 13 -8 12 -10 -2 -10 -10
0 -18 3 -18 7 0 12 43 53 54 52 6 0 5 -3 -1 -6z m47 -10 c0 -10 -4 -14 -8 -8
-4 6 -11 13 -16 18 -5 4 -2 7 7 7 10 0 17 -8 17 -17z m30 7 c-10 -6 -11 -10
-2 -10 6 0 12 -7 12 -15 0 -8 -5 -15 -11 -15 -5 0 -8 4 -5 9 4 5 1 11 -6 13
-14 5 -2 28 15 28 7 0 6 -4 -3 -10z m1330 -16 c0 -8 -7 -14 -15 -14 -15 0 -21
21 -9 33 10 9 24 -2 24 -19z m5605 -4 c-5 -8 -11 -8 -17 -2 -6 6 -7 16 -3 22
5 8 11 8 17 2 6 -6 7 -16 3 -22z m-8592 7 c3 -8 -1 -14 -8 -14 -7 0 -11 6 -8
14 3 7 6 13 8 13 2 0 5 -6 8 -13z m45 -4 c-12 -15 -22 -18 -14 -4 4 5 0 11 -6
14 -7 3 -3 4 9 4 17 -1 19 -4 11 -14z m1697 6 c11 -17 -1 -21 -15 -4 -8 9 -8
15 -2 15 6 0 14 -5 17 -11z m1082 -19 c-1 -11 -7 -20 -14 -20 -10 0 -11 5 -4
19 6 10 7 22 3 26 -4 5 -2 5 5 1 6 -3 11 -15 10 -26z m-2984 5 c4 -8 2 -17 -3
-20 -6 -4 -10 3 -10 14 0 25 6 27 13 6z m80 -3 c-5 -10 -8 -11 -13 -2 -5 7
-13 9 -20 5 -8 -5 -11 -4 -6 3 10 16 45 11 39 -6z m1397 -14 c0 -23 -3 -29 -9
-19 -8 12 -4 51 5 51 2 0 4 -15 4 -32z m300 8 c8 -3 5 -4 -7 -2 -13 2 -23 0
-23 -5 0 -5 -5 -9 -10 -9 -6 0 -5 8 2 20 7 10 15 16 18 11 3 -4 12 -11 20 -15z
m-588 -13 c-3 -17 -7 -22 -10 -13 -3 8 -9 21 -15 28 -7 9 -4 12 10 12 17 0 19
-5 15 -27z m25 -20 c-3 -10 -5 -2 -5 17 0 19 2 27 5 18 2 -10 2 -26 0 -35z
m243 40 c0 -5 -5 -15 -10 -23 -8 -12 -10 -11 -10 8 0 12 5 22 10 22 6 0 10 -3
10 -7z m58 -16 c2 -10 -3 -17 -12 -17 -10 0 -16 9 -16 21 0 24 23 21 28 -4z
m32 3 c-9 -6 -9 -9 1 -13 10 -4 9 -6 -3 -6 -12 -1 -18 6 -18 19 0 14 5 18 16
13 11 -4 12 -8 4 -13z m50 0 c0 -9 -7 -17 -15 -17 -8 0 -15 8 -15 17 0 9 7 17
15 17 8 0 15 -8 15 -17z m1412 -2 c-7 -7 -12 -8 -12 -2 0 14 12 26 19 19 2 -3
-1 -11 -7 -17z m-1942 -7 c0 8 11 16 25 17 22 2 25 -2 24 -31 l-1 -32 -8 30
c-7 26 -8 27 -9 6 -1 -19 -5 -22 -25 -17 -15 4 -26 1 -29 -7 -3 -6 -6 4 -6 23
0 33 1 34 14 16 11 -15 15 -16 15 -5z m208 7 c9 -9 12 -9 12 0 0 7 7 12 16 12
10 0 14 -7 12 -21 -2 -16 -11 -23 -35 -25 -29 -3 -33 -1 -33 21 0 27 9 32 28
13z m82 6 c0 -3 -7 -12 -15 -20 -13 -14 -15 -13 -15 5 0 12 6 21 15 21 8 0 15
-3 15 -6z m1177 -16 c-3 -8 -6 -5 -6 6 -1 11 2 17 5 13 3 -3 4 -12 1 -19z m43
-13 c0 -5 -5 -3 -10 5 -5 8 -10 20 -10 25 0 6 5 3 10 -5 5 -8 10 -19 10 -25z
m54 20 c-4 -8 -8 -15 -10 -15 -2 0 -4 7 -4 15 0 8 4 15 10 15 5 0 7 -7 4 -15z
m52 0 c4 -8 11 -15 16 -15 6 0 8 7 4 15 -3 8 -1 15 5 15 24 0 2 -35 -23 -37
-29 -2 -43 10 -33 27 9 15 25 12 31 -5z m-1449 -17 c-3 -8 -6 -5 -6 6 -1 11 2
17 5 13 3 -3 4 -12 1 -19z m-494 -13 c-3 -9 -8 -14 -10 -11 -3 3 -2 9 2 15 9
16 15 13 8 -4z m87 9 c0 -8 -19 -13 -24 -6 -3 5 1 9 9 9 8 0 15 -2 15 -3z
m-140 -24 c6 -11 8 -20 6 -20 -3 0 -10 9 -16 20 -6 11 -8 20 -6 20 3 0 10 -9
16 -20z m1196 -26 c12 -9 9 -11 -12 -11 -18 0 -22 2 -13 8 9 5 10 9 2 9 -7 0
-9 9 -5 23 6 21 6 21 10 2 2 -11 10 -25 18 -31z m24 26 c0 -11 -4 -20 -8 -20
-4 0 -8 9 -8 20 0 11 4 20 8 20 4 0 8 -9 8 -20z m27 -27 c-3 -10 -5 -2 -5 17
0 19 2 27 5 18 2 -10 2 -26 0 -35z m1213 28 c0 -23 -16 -36 -25 -21 -9 14 1
40 15 40 5 0 10 -9 10 -19z m-2728 -16 c-8 -16 -9 -16 -15 -1 -4 10 -3 15 3
11 6 -3 10 -1 10 6 0 7 3 10 6 6 3 -3 2 -13 -4 -22z m58 15 c0 -5 -4 -10 -10
-10 -5 0 -10 5 -10 10 0 6 5 10 10 10 6 0 10 -4 10 -10z m1264 -1 c-3 -6 -1
-15 6 -19 14 -9 5 -30 -13 -30 -8 0 -7 3 2 9 11 7 11 9 0 13 -12 4 -7 38 6 38
4 0 3 -5 -1 -11z m46 -16 c0 -30 -9 -27 -15 6 -2 11 0 21 6 21 5 0 9 -12 9
-27z m30 17 c-10 -6 -11 -10 -2 -10 6 0 12 -8 12 -17 0 -15 -2 -14 -14 2 -15
21 -12 35 7 35 7 0 6 -4 -3 -10z m1168 -15 c-3 -33 -16 -33 -14 0 0 14 4 25 8
25 4 0 7 -11 6 -25z m32 6 c0 -11 -3 -22 -7 -24 -5 -3 -8 6 -8 19 0 13 3 24 8
24 4 0 7 -9 7 -19z m-1308 -16 c6 -29 -7 -34 -15 -6 -4 17 0 31 9 31 1 0 4
-11 6 -25z m-1549 -5 c3 -11 1 -18 -4 -14 -5 3 -9 0 -9 -7 0 -7 -2 -10 -5 -8
-4 5 5 49 10 49 1 0 5 -9 8 -20z m47 11 c0 -6 -4 -12 -8 -15 -5 -3 -9 1 -9 9
0 8 4 15 9 15 4 0 8 -4 8 -9z m1457 -13 c2 -17 0 -19 -7 -8 -5 8 -6 18 -4 22
8 12 10 10 11 -14z m-1617 2 c0 -5 -2 -10 -4 -10 -3 0 -8 5 -11 10 -3 6 -1 10
4 10 6 0 11 -4 11 -10z m1302 -15 c-2 -14 -6 -25 -8 -25 -2 0 -4 11 -4 25 0
14 4 25 9 25 4 0 6 -11 3 -25z m164 -12 c-6 -14 -9 -15 -16 -4 -11 19 -1 46
13 32 5 -5 7 -18 3 -28z m41 5 c-3 -7 -5 -2 -5 12 0 14 2 19 5 13 2 -7 2 -19
0 -25z m36 25 c-7 -2 -13 -9 -13 -14 0 -6 5 -7 10 -4 6 3 10 1 10 -4 0 -14
-17 -14 -25 -1 -8 13 3 30 18 29 9 0 9 -2 0 -6z m24 -15 c-3 -8 -6 -5 -6 6 -1
11 2 17 5 13 3 -3 4 -12 1 -19z m20 0 c-3 -8 -6 -5 -6 6 -1 11 2 17 5 13 3 -3
4 -12 1 -19z m870 0 c-3 -8 -6 -5 -6 6 -1 11 2 17 5 13 3 -3 4 -12 1 -19z m43
-3 c0 -19 -17 -28 -26 -14 -5 8 -3 9 6 4 10 -6 12 -3 8 13 -4 12 -2 20 3 16 5
-3 9 -11 9 -19z m27 5 c1 -11 -2 -20 -5 -20 -4 0 -8 9 -9 20 -1 11 2 20 5 20
4 0 8 -9 9 -20z m126 4 c-5 -14 -33 -27 -41 -19 -3 3 0 5 7 5 7 0 11 6 8 13
-3 7 3 13 13 13 10 0 16 -6 13 -12z m-2703 2 c0 -3 -4 -8 -10 -11 -5 -3 -10
-1 -10 4 0 6 5 11 10 11 6 0 10 -2 10 -4z m1272 -21 c3 -14 1 -25 -3 -25 -5 0
-9 11 -9 25 0 14 2 25 4 25 2 0 6 -11 8 -25z m129 8 c1 -16 2 -16 6 -1 5 20
69 22 77 2 3 -8 1 -14 -4 -14 -6 0 -10 6 -10 13 0 8 -4 7 -10 -3 -9 -13 -11
-13 -20 0 -9 13 -12 13 -21 -2 -5 -10 -16 -18 -23 -18 -15 0 -28 24 -19 34 12
11 23 6 24 -11z m136 -5 c-3 -8 -6 -5 -6 6 -1 11 2 17 5 13 3 -3 4 -12 1 -19z
m-1568 -5 c0 -11 -3 -13 -6 -5 -2 6 -10 9 -15 6 -7 -4 -8 -2 -4 4 11 18 26 14
25 -5z m1102 -15 c-5 -30 -6 -31 -9 -8 -2 14 -9 28 -16 32 -7 5 -3 8 10 8 18
0 20 -5 15 -32z m76 7 c-9 -19 -13 -21 -15 -9 -3 13 12 33 25 34 0 0 -4 -11
-10 -25z m45 -2 c-6 -3 -9 -10 -6 -16 5 -9 4 -9 -6 0 -7 6 -10 19 -6 29 5 14
9 15 19 4 9 -10 9 -13 -1 -17z m25 -5 c-3 -7 -5 -2 -5 12 0 14 2 19 5 13 2 -7
2 -19 0 -25z m20 0 c-3 -7 -5 -2 -5 12 0 14 2 19 5 13 2 -7 2 -19 0 -25z
m-347 -5 c0 -22 -2 -25 -10 -13 -9 13 -10 13 -11 0 0 -12 -2 -12 -6 -1 -5 11
-7 11 -14 0 -7 -11 -9 -10 -9 4 0 9 -5 17 -11 17 -6 0 -8 -8 -5 -17 5 -14 -1
-18 -24 -20 -18 -1 -30 3 -30 10 0 7 -3 8 -8 2 -11 -15 -32 -17 -32 -2 0 6 -5
4 -11 -5 -12 -22 -29 -23 -29 -3 0 8 -5 15 -11 15 -6 0 -9 -7 -5 -15 3 -8 1
-15 -4 -15 -6 0 -10 5 -10 11 0 5 -5 7 -11 3 -7 -4 -10 1 -7 12 3 15 13 19 43
20 22 1 42 2 45 3 3 2 35 4 73 5 37 2 70 6 74 10 11 11 13 7 13 -21z m230 16
c0 -5 -4 -7 -10 -4 -5 3 -10 2 -10 -4 0 -5 6 -12 13 -14 7 -3 5 -6 -5 -6 -12
-1 -18 6 -18 19 0 11 7 20 15 20 8 0 15 -5 15 -11z m2030 -19 c0 -11 -7 -20
-15 -20 -8 0 -15 9 -15 20 0 11 7 20 15 20 8 0 15 -9 15 -20z m-162 -15 c-3
-33 -16 -33 -14 0 0 14 4 25 8 25 4 0 7 -11 6 -25z m32 5 c0 -11 -4 -20 -8
-20 -4 0 -8 9 -8 20 0 11 4 20 8 20 4 0 8 -9 8 -20z m-2577 -27 c-4 -10 -9
-11 -16 -4 -5 5 -7 18 -3 28 6 14 9 15 16 4 4 -8 6 -21 3 -28z m137 22 c0 -8
-5 -15 -11 -15 -5 0 -7 -4 -4 -10 3 -5 4 -10 0 -10 -3 0 -10 10 -15 23 -9 22
-9 22 -10 -3 0 -22 -2 -23 -11 -7 -5 9 -14 17 -19 17 -6 0 -10 -8 -11 -17 0
-15 -2 -15 -9 2 -5 11 -9 22 -9 25 -1 3 22 6 49 8 39 2 50 -1 50 -13z m30 3
c0 -9 4 -8 10 2 8 12 10 11 10 -7 0 -15 -5 -20 -17 -19 -10 2 -22 -2 -26 -8
-6 -7 -7 -4 -3 7 3 10 6 23 6 28 0 5 5 9 10 9 6 0 10 -6 10 -12z m-250 -18 c0
-13 2 -13 9 -1 17 26 41 22 40 -7 0 -15 -3 -22 -5 -15 -4 8 -13 9 -30 3 -17
-7 -24 -6 -24 3 0 9 -3 8 -9 -1 -7 -11 -9 -11 -14 2 -4 9 -12 16 -19 16 -9 0
-9 -3 2 -10 8 -5 12 -12 8 -15 -3 -3 -13 1 -21 10 -20 19 -31 19 -23 -1 3 -8
2 -13 -3 -9 -5 3 -12 -1 -14 -7 -4 -8 -8 -4 -13 10 -5 18 -9 20 -15 10 -8 -11
-10 -11 -18 0 -6 11 -10 8 -14 -10 -7 -28 -45 -33 -65 -9 -11 14 -11 14 -6 -1
4 -13 0 -16 -15 -15 -12 1 -21 6 -21 12 0 5 -5 3 -10 -5 -12 -20 -16 -19 -34
5 -15 20 -15 19 -16 -5 0 -20 -2 -22 -10 -10 -9 13 -10 13 -10 0 0 -13 -1 -13
-10 0 -6 10 -10 11 -10 3 0 -7 -4 -13 -9 -13 -5 0 -7 10 -4 23 4 21 4 21 -10
-2 l-15 -24 -8 24 c-8 24 -8 24 -15 -6 -6 -29 -7 -29 -8 -4 -1 32 8 42 26 28
9 -9 13 -8 13 0 0 7 11 10 28 8 15 -2 40 0 56 4 21 6 32 5 38 -4 5 -8 8 -9 8
0 0 6 8 10 18 9 9 -2 29 0 45 5 23 7 27 5 28 -14 0 -22 0 -22 9 -1 9 24 46 26
61 3 7 -12 9 -11 9 3 0 27 100 35 100 8z m118 0 c3 -7 0 -10 -6 -6 -6 3 -12 0
-15 -6 -3 -7 -4 -3 -4 10 1 23 18 25 25 2z m1229 -17 c-3 -10 -5 -4 -5 12 0
17 2 24 5 18 2 -7 2 -21 0 -30z m-187 -4 c0 -28 -15 -23 -16 6 -1 14 2 22 7
19 5 -3 9 -14 9 -25z m40 16 c0 -8 -2 -15 -4 -15 -2 0 -6 7 -10 15 -3 8 -1 15
4 15 6 0 10 -7 10 -15z m26 6 c-3 -5 1 -11 8 -14 9 -4 17 1 19 11 3 11 5 9 6
-7 1 -21 3 -22 18 -10 14 12 16 12 11 -1 -2 -8 -18 -15 -38 -16 -18 -1 -27 2
-20 6 8 5 7 9 -5 14 -14 5 -13 26 1 26 3 0 3 -4 0 -9z m964 -12 c0 -11 -5 -17
-10 -14 -6 4 -8 10 -5 15 3 4 -1 11 -7 13 -8 3 -6 6 5 6 11 1 17 -6 17 -20z
m30 0 c0 -11 -4 -17 -10 -14 -5 3 -10 13 -10 21 0 8 5 14 10 14 6 0 10 -9 10
-21z m94 6 c-4 -8 -8 -15 -10 -15 -2 0 -4 7 -4 15 0 8 4 15 10 15 5 0 7 -7 4
-15z m46 1 c0 -8 -4 -17 -8 -20 -13 -8 -35 11 -28 23 10 16 36 14 36 -3z
m-1353 -2 c-3 -3 -12 -4 -19 -1 -8 3 -5 6 6 6 11 1 17 -2 13 -5z m100 -31 c-3
-10 -5 -4 -5 12 0 17 2 24 5 18 2 -7 2 -21 0 -30z m291 19 c2 -7 -1 -12 -8
-12 -6 0 -9 4 -6 9 4 5 3 11 -1 13 -5 3 -4 4 1 3 6 -1 12 -7 14 -13z m-365 -9
c-4 -11 -3 -14 5 -9 8 5 10 2 6 -8 -3 -9 -10 -13 -15 -10 -12 7 -11 44 1 44 5
0 6 -7 3 -17z m44 -3 c-1 -11 -5 -20 -9 -20 -10 0 -10 4 -2 24 8 22 13 20 11
-4z m-361 -6 c-3 -9 -6 -23 -6 -31 0 -22 -6 -14 -14 20 -5 21 -3 27 10 27 11
0 14 -5 10 -16z m134 -15 c0 -10 -7 -19 -15 -19 -15 0 -21 31 -9 43 11 10 24
-3 24 -24z m31 4 c-11 -5 -11 -7 0 -14 11 -7 10 -9 -3 -9 -11 0 -18 7 -18 18
0 25 11 35 24 21 8 -8 7 -13 -3 -16z m39 17 c0 -5 -2 -10 -4 -10 -3 0 -8 5
-11 10 -3 6 -1 10 4 10 6 0 11 -4 11 -10z m86 -19 c-4 -6 -13 -11 -19 -11 -8
0 -7 3 2 9 8 5 10 14 6 22 -6 11 -5 11 5 2 7 -6 9 -16 6 -22z m-196 8 c0 -6
-4 -7 -10 -4 -5 3 -10 -1 -10 -9 0 -20 -16 -21 -24 -1 -3 8 -10 15 -16 15 -12
0 -9 -22 5 -32 6 -5 6 -8 -2 -8 -16 0 -26 18 -20 34 6 15 77 20 77 5z m1093 2
c4 0 6 -11 6 -23 -1 -21 -2 -21 -7 -3 l-5 20 -8 -20 c-7 -19 -8 -19 -8 3 -1
13 -5 21 -11 17 -5 -3 -6 -13 -3 -21 4 -11 0 -15 -13 -13 -10 2 -24 0 -31 -4
-6 -4 -15 -2 -19 4 -4 8 -3 9 4 5 8 -5 12 1 12 14 0 12 -4 18 -10 15 -5 -3
-10 -2 -10 4 0 8 60 9 103 2z m887 -11 c0 -19 -11 -26 -23 -14 -8 8 3 34 14
34 5 0 9 -9 9 -20z m-2352 -20 c-8 -12 -15 -15 -19 -9 -4 7 -9 4 -13 -6 -5
-14 -9 -15 -20 -6 -11 9 -15 9 -19 -1 -3 -7 -6 0 -6 16 -1 26 1 28 29 24 17
-3 33 -1 36 4 3 5 9 6 14 3 6 -4 4 -14 -2 -25z m82 8 c0 -10 -7 -15 -17 -13
-10 1 -24 -2 -30 -8 -9 -6 -13 -5 -13 4 0 11 -2 11 -10 -1 -5 -8 -10 -12 -10
-7 0 4 5 16 12 27 15 24 68 23 68 -2z m1145 12 c-4 -6 -1 -17 5 -25 10 -12 9
-16 -4 -21 -9 -4 -19 -4 -22 -1 -8 8 7 57 18 57 5 0 6 -5 3 -10z m70 0 c-3 -5
-1 -10 4 -10 6 0 11 -7 11 -15 0 -8 -5 -15 -11 -15 -5 0 -8 4 -4 9 3 5 1 12
-5 16 -10 6 -5 25 6 25 3 0 2 -4 -1 -10z m887 -22 c-8 -8 -9 -4 -5 13 4 13 8
18 11 10 2 -7 -1 -18 -6 -23z m-2292 10 c0 6 5 12 10 12 6 0 10 -11 10 -25 0
-14 -4 -25 -10 -25 -5 0 -10 4 -10 9 0 5 -7 12 -16 15 -14 5 -15 4 -5 -8 8
-10 9 -16 1 -21 -5 -3 -10 -1 -10 5 0 6 -4 8 -10 5 -5 -3 -10 1 -10 9 0 9 -4
16 -9 16 -5 0 -7 -10 -4 -22 4 -22 4 -23 -11 -4 -16 20 -16 20 -17 0 0 -18 -1
-18 -9 1 -7 17 -9 17 -9 3 -1 -21 -23 -19 -33 2 -4 10 -7 7 -7 -10 -1 -20 -3
-22 -12 -10 -8 11 -12 12 -16 3 -7 -18 -47 -17 -40 0 3 8 -1 14 -9 14 -8 0
-14 -6 -14 -13 0 -7 -5 -16 -11 -20 -8 -4 -9 1 -4 16 l7 23 -23 -22 c-26 -24
-39 -27 -39 -8 0 8 -4 7 -10 -3 -8 -12 -10 -10 -10 11 0 31 29 36 31 5 1 -15
4 -13 9 9 4 17 8 24 9 17 1 -9 6 -10 20 -3 10 6 47 11 82 11 86 0 148 6 156
14 4 3 10 1 15 -6 6 -10 8 -10 8 0z m1603 -3 c-3 -9 -8 -14 -10 -11 -3 3 -2 9
2 15 9 16 15 13 8 -4z m-693 -15 c0 -5 -5 -10 -11 -10 -5 0 -7 5 -4 10 3 6 8
10 11 10 2 0 4 -4 4 -10z m42 -20 c3 -16 1 -30 -4 -30 -4 0 -8 14 -8 30 0 17
2 30 4 30 2 0 6 -13 8 -30z m73 5 c0 -14 -3 -25 -7 -25 -5 0 -8 11 -8 25 0 14
3 25 8 25 4 0 7 -11 7 -25z m60 7 c6 0 16 5 23 11 11 8 11 5 1 -17 -9 -19 -15
-23 -19 -14 -6 15 -30 22 -30 9 0 -5 6 -12 13 -14 7 -3 6 -6 -5 -6 -23 -1 -32
17 -17 35 7 8 15 11 18 5 3 -5 11 -9 16 -9z m65 8 c0 -5 -4 -10 -10 -10 -5 0
-10 5 -10 10 0 6 5 10 10 10 6 0 10 -4 10 -10z m49 -6 c18 22 31 20 31 -3 0
-15 -7 -19 -30 -19 -24 1 -30 5 -29 22 0 19 1 19 8 3 6 -17 8 -17 20 -3z m71
-1 c0 -10 -4 -14 -8 -8 -4 6 -11 13 -16 18 -5 4 -2 7 7 7 10 0 17 -8 17 -17z
m571 -12 c1 -9 4 -6 9 9 l8 25 1 -28 c1 -33 -15 -32 -37 1 -13 20 -13 22 2 16
9 -3 16 -14 17 -23z m48 2 c0 -25 -1 -26 -9 -8 -12 27 -12 35 0 35 6 0 10 -12
9 -27z m65 12 c-4 -8 -8 -15 -10 -15 -2 0 -4 7 -4 15 0 8 4 15 10 15 5 0 7 -7
4 -15z m45 -1 c18 21 31 20 30 -1 0 -11 -3 -13 -6 -6 -3 10 -8 9 -20 -2 -17
-18 -33 -11 -32 13 0 15 1 15 8 -1 6 -17 8 -17 20 -3z m-2339 -19 c0 -13 -6
-22 -15 -22 -8 0 -15 6 -15 13 0 7 -4 15 -9 18 -5 4 -7 -4 -4 -16 3 -13 3 -20
-2 -16 -4 4 -17 3 -30 -2 -14 -5 -26 -5 -34 3 -8 8 -11 8 -11 0 0 -6 -11 -10
-25 -9 -14 0 -25 6 -25 11 0 6 -5 3 -10 -5 -5 -8 -10 -11 -10 -6 0 5 -6 3 -14
-3 -10 -8 -16 -9 -21 -1 -3 6 -11 7 -17 4 -6 -4 -22 -8 -35 -10 -18 -2 -23 3
-23 21 0 19 5 22 33 22 18 -1 37 2 42 5 6 3 35 5 65 4 30 -1 66 1 80 5 14 3
37 6 53 6 21 0 27 -5 27 -22z m1170 15 c0 -5 -4 -10 -10 -10 -5 0 -10 5 -10
10 0 6 5 10 10 10 6 0 10 -4 10 -10z m37 3 c-4 -3 -2 -12 5 -20 6 -7 8 -16 4
-20 -3 -3 -6 0 -6 8 0 11 -2 11 -10 -1 -8 -12 -10 -11 -10 6 0 20 8 34 18 34
3 0 2 -3 -1 -7z m-115 -28 c3 -14 1 -25 -3 -25 -5 0 -9 11 -9 25 0 14 2 25 4
25 2 0 6 -11 8 -25z m-1402 -10 c0 -14 -4 -25 -9 -25 -4 0 -6 11 -3 25 2 14 6
25 8 25 2 0 4 -11 4 -25z m1242 -5 c3 -17 0 -30 -6 -30 -6 0 -11 14 -11 30 0
17 3 30 6 30 4 0 9 -13 11 -30z m83 20 c3 -5 -1 -10 -9 -10 -9 0 -16 5 -16 10
0 6 4 10 9 10 6 0 13 -4 16 -10z m-1345 -15 c0 -22 -18 -27 -29 -7 -8 14 -6
18 10 19 10 1 19 -4 19 -12z m1150 -15 c0 -23 -4 -30 -20 -30 -11 0 -20 6 -20
14 0 8 -5 18 -12 22 -6 4 -8 3 -5 -2 3 -6 2 -16 -4 -24 -6 -11 -9 -8 -9 13 0
22 4 27 24 27 18 0 26 -7 29 -22 4 -20 4 -19 6 5 1 37 11 35 11 -3z m159 8 c0
-22 -1 -22 -9 -3 -8 19 -9 19 -9 1 -1 -11 -4 -17 -7 -13 -9 9 3 37 16 37 5 0
10 -10 9 -22z m79 5 c-2 -10 -7 -18 -12 -18 -5 0 -10 8 -12 18 -1 9 4 17 13
17 8 0 13 -7 11 -17z m1742 -3 c0 -21 -15 -27 -25 -10 -7 12 2 30 16 30 5 0 9
-9 9 -20z m-2069 1 c-9 -6 -11 -17 -6 -32 7 -23 6 -23 -11 -7 -14 14 -15 20
-4 32 7 9 18 16 24 16 6 0 5 -4 -3 -9z m1945 -3 c14 -22 -14 -30 -34 -10 -19
19 -19 20 4 20 14 0 27 -5 30 -10z m-3049 -20 c-3 -8 -6 -5 -6 6 -1 11 2 17 5
13 3 -3 4 -12 1 -19z m810 -10 c-3 -8 -6 -5 -6 6 -1 11 2 17 5 13 3 -3 4 -12
1 -19z m1181 -4 c2 -17 -4 -23 -29 -28 -18 -3 -34 -4 -37 -1 -3 3 0 5 7 5 7 0
9 5 6 10 -3 6 -1 10 5 10 6 0 8 5 5 10 -10 16 -23 12 -29 -8 -8 -24 -36 -24
-36 -1 0 18 22 26 75 24 22 0 31 -6 33 -21z m777 16 c3 -5 1 -10 -4 -10 -6 0
-11 5 -11 10 0 6 2 10 4 10 3 0 8 -4 11 -10z m245 0 c0 -5 -5 -10 -11 -10 -5
0 -7 5 -4 10 3 6 8 10 11 10 2 0 4 -4 4 -10z m-2304 -21 c0 -12 -7 -16 -23
-13 -13 3 -23 -1 -23 -7 0 -6 -7 -3 -16 5 -21 21 -35 20 -27 -1 5 -15 3 -14
-11 2 -17 20 -17 20 -11 -5 4 -14 3 -20 -2 -14 -4 6 -16 15 -27 21 -12 7 -15
13 -7 17 6 4 11 2 11 -5 0 -8 4 -8 13 -2 6 6 31 10 55 9 23 -1 42 1 42 5 0 3
6 6 13 6 7 0 13 -8 13 -18z m28 6 c-4 -8 -8 -15 -10 -15 -2 0 -4 7 -4 15 0 8
4 15 10 15 5 0 7 -7 4 -15z m49 8 c3 -5 -1 -13 -8 -20 -10 -10 -14 -9 -18 1
-8 21 15 37 26 19z m52 -3 c3 -5 1 -10 -4 -10 -6 0 -11 5 -11 10 0 6 2 10 4
10 3 0 8 -4 11 -10z m987 3 c-10 -4 -9 -8 5 -19 10 -7 21 -14 26 -14 12 0 8
28 -5 33 -8 3 -6 6 5 6 12 1 17 -7 17 -24 0 -15 -6 -25 -14 -25 -8 0 -23 -3
-33 -6 -15 -5 -15 -4 -3 5 12 9 12 11 -2 16 -10 4 -21 4 -26 1 -6 -3 -13 1
-16 10 -4 12 -2 15 9 11 8 -4 17 -2 20 3 4 6 12 10 18 9 8 0 8 -2 -1 -6z m745
-30 c-11 -11 -17 -13 -17 -5 0 7 5 12 11 12 6 0 8 7 4 18 -5 14 -4 15 6 4 11
-10 10 -15 -4 -29z m160 22 c-8 -9 -16 -10 -24 -3 -9 7 -13 7 -13 -2 0 -8 -3
-11 -6 -7 -11 10 4 22 29 23 21 2 23 -1 14 -11z m-977 -20 c0 -14 -3 -25 -7
-25 -5 0 -8 11 -8 25 0 14 3 25 8 25 4 0 7 -11 7 -25z m920 21 c0 -3 -4 -8
-10 -11 -5 -3 -10 -1 -10 4 0 6 5 11 10 11 6 0 10 -2 10 -4z m-2183 -41 c-16
-17 -17 -14 -10 14 4 15 8 19 13 10 5 -6 3 -18 -3 -24z m57 19 c9 -23 4 -24
-16 -2 -14 14 -15 18 -4 18 8 0 17 -7 20 -16z m1059 -6 c8 -29 1 -38 -31 -38
-21 0 -24 2 -12 10 13 9 12 13 -5 27 -16 12 -16 14 -3 10 10 -3 20 -2 23 3 10
16 22 11 28 -12z m63 -15 c-8 -15 -15 -25 -16 -21 0 12 23 58 27 54 3 -2 -2
-17 -11 -33z m944 33 c0 -3 -4 -8 -10 -11 -5 -3 -10 -1 -10 4 0 6 5 11 10 11
6 0 10 -2 10 -4z m-2327 -43 c-5 -12 -7 -12 -14 -1 -5 7 -9 9 -9 3 0 -5 -5 -3
-11 5 -8 11 -12 12 -16 3 -6 -17 -23 -16 -23 1 0 9 10 13 30 12 17 -1 30 3 30
8 0 6 4 5 9 -3 5 -8 7 -21 4 -28z m86 8 c0 -20 -2 -22 -7 -9 -10 25 -19 26
-35 4 -13 -18 -14 -18 -21 -1 -3 10 -4 20 -1 23 3 3 5 0 5 -7 0 -9 4 -9 14 2
23 23 46 17 45 -12z m18 -8 c-3 -10 -5 -4 -5 12 0 17 2 24 5 18 2 -7 2 -21 0
-30z m40 16 c-1 -14 -4 -15 -14 -7 -17 14 -16 25 1 25 8 0 14 -8 13 -18z m26
1 c3 -11 1 -18 -4 -14 -5 3 -9 12 -9 20 0 20 7 17 13 -6z m1009 11 c-11 -7
-11 -9 2 -14 10 -4 16 -1 16 8 0 10 9 14 25 13 24 -2 36 -18 14 -18 -6 0 -8
-7 -5 -16 3 -8 2 -13 -3 -9 -5 3 -21 1 -36 -5 -20 -8 -27 -7 -31 5 -8 20 2 45
18 45 10 0 10 -2 0 -9z m1715 -7 c8 -20 -13 -42 -27 -28 -12 12 -3 44 11 44 5
0 12 -7 16 -16z m-3017 -5 c0 8 3 12 6 9 9 -10 -19 -46 -32 -41 -6 2 -15 -1
-19 -6 -11 -18 -24 -3 -17 21 5 21 6 21 13 2 7 -19 8 -19 8 1 1 17 3 17 11 5
8 -12 10 -12 10 5 0 17 2 17 10 5 8 -12 10 -12 10 -1z m32 -21 c-9 -9 -12 -7
-12 12 0 19 3 21 12 12 9 -9 9 -15 0 -24z m1230 7 c3 -14 1 -25 -3 -25 -5 0
-9 11 -9 25 0 14 2 25 4 25 2 0 6 -11 8 -25z m1626 -2 c2 -16 -3 -20 -28 -21
-17 0 -28 4 -24 9 3 5 10 6 16 3 7 -4 7 0 0 13 -9 17 -8 19 11 18 14 -1 23 -9
25 -22z m-2958 8 c0 -6 -5 -13 -12 -17 -6 -4 -8 -3 -4 4 3 5 0 13 -6 15 -8 3
-6 6 5 6 9 1 17 -3 17 -8z m8538 -3 c7 -7 12 -25 12 -40 0 -50 -81 -51 -88 -1
-6 40 48 69 76 41z m-7519 -30 c0 -27 -2 -29 -8 -13 l-8 20 -5 -20 c-5 -16 -6
-15 -7 7 -1 22 5 30 27 37 1 1 2 -14 1 -31z m161 25 c0 -5 -5 -15 -10 -23 -8
-12 -10 -11 -10 8 0 12 5 22 10 22 6 0 10 -3 10 -7z m30 -5 c0 6 4 12 9 12 5
0 4 -13 -2 -30 -15 -38 -22 -38 -23 1 -1 20 2 26 7 17 7 -10 9 -10 9 0z m-70
-18 c0 -15 -9 -19 -51 -22 -28 -1 -53 1 -56 5 -12 20 8 32 56 34 43 1 51 -1
51 -17z m2470 10 c0 -5 -2 -10 -4 -10 -3 0 -8 5 -11 10 -3 6 -1 10 4 10 6 0
11 -4 11 -10z m-1122 -28 c2 -16 -2 -22 -15 -22 -15 0 -16 2 -3 10 13 9 13 10
0 11 -12 0 -12 2 -1 6 11 5 11 7 0 15 -11 8 -11 9 1 5 8 -2 16 -13 18 -25z
m32 -3 c0 -10 -4 -19 -8 -19 -4 0 -8 11 -8 24 0 14 4 22 8 20 4 -3 8 -14 8
-25z m60 21 c0 -5 -4 -10 -10 -10 -5 0 -10 5 -10 10 0 6 5 10 10 10 6 0 10 -4
10 -10z m24 -1 c-3 -6 0 -15 7 -20 9 -6 10 -9 2 -9 -15 0 -26 17 -18 30 3 6 8
10 11 10 3 0 2 -5 -2 -11z m50 -21 c-3 -4 -11 -8 -17 -8 -7 0 -6 4 3 10 11 7
11 10 2 10 -7 0 -10 5 -6 11 4 8 9 7 15 -2 4 -7 5 -17 3 -21z m-2007 -3 c4 -4
3 -5 -3 -2 -7 4 -15 -1 -18 -10 -5 -12 -10 -13 -17 -6 -6 6 -8 16 -5 21 7 12
32 10 43 -3z m39 3 c4 -6 3 -8 -4 -4 -5 3 -13 0 -15 -6 -3 -8 -6 -6 -6 5 -1
19 14 23 25 5z m-209 -15 c0 -9 -4 -10 -14 -2 -10 9 -13 8 -13 -1 0 -8 -3 -11
-6 -7 -9 9 3 24 19 24 7 0 14 -6 14 -14z m33 5 c0 -9 4 -8 10 2 5 8 10 10 10
4 0 -16 -10 -23 -26 -17 -16 6 -19 23 -4 23 6 0 10 -6 10 -12z m2575 -8 c0 -7
-6 -15 -12 -17 -8 -3 -13 4 -13 17 0 13 5 20 13 18 6 -3 12 -11 12 -18z
m-2754 -13 c-10 -9 -11 -8 -5 6 3 10 9 15 12 12 3 -3 0 -11 -7 -18z m46 17
c-3 -3 -12 -4 -19 -1 -8 3 -5 6 6 6 11 1 17 -2 13 -5z m20 -16 c-3 -8 -6 -5
-6 6 -1 11 2 17 5 13 3 -3 4 -12 1 -19z m2563 -7 c0 -13 -8 -18 -30 -19 -17 0
-28 4 -24 9 3 5 10 6 16 3 7 -5 8 -2 3 6 -4 7 -2 16 6 20 17 11 29 3 29 -19z
m-2749 -18 c-8 -14 -11 -14 -11 -3 0 13 -1 13 -10 0 -13 -21 -13 -3 1 22 7 13
14 17 21 10 7 -7 7 -16 -1 -29z m99 33 c0 -3 -4 -8 -10 -11 -5 -3 -10 -1 -10
4 0 6 5 11 10 11 6 0 10 -2 10 -4z m-202 -31 c-3 -3 -9 2 -12 12 -6 14 -5 15
5 6 7 -7 10 -15 7 -18z m19 3 c-3 -8 -6 -5 -6 6 -1 11 2 17 5 13 3 -3 4 -12 1
-19z m-63 -4 c3 -8 2 -12 -4 -9 -6 3 -10 10 -10 16 0 14 7 11 14 -7z m1816
-84 l0 -89 -42 -5 c-75 -8 -379 -38 -483 -46 -55 -5 -133 -12 -172 -16 l-73
-6 0 46 c0 42 2 46 24 46 13 0 38 3 56 6 31 7 32 9 28 50 -3 48 -7 47 140 60
83 8 91 3 93 -56 l1 -35 7 30 c7 33 37 46 53 23 8 -10 9 -10 5 2 -11 37 19 53
115 61 51 5 125 13 163 17 39 4 73 6 78 4 4 -2 7 -43 7 -92z m784 75 c-10 -8
-23 -14 -29 -14 -5 0 -4 3 4 6 11 5 11 7 0 15 -11 8 -10 9 3 4 10 -3 20 -1 24
5 3 6 9 8 12 5 3 -4 -3 -13 -14 -21z m-174 -16 c0 -20 -15 -26 -25 -9 -9 15 3
43 15 35 5 -3 10 -15 10 -26z m30 6 c0 -14 -3 -25 -7 -25 -5 0 -8 11 -8 25 0
14 3 25 8 25 4 0 7 -11 7 -25z m100 5 c0 -5 -4 -10 -10 -10 -5 0 -10 5 -10 10
0 6 5 10 10 10 6 0 10 -4 10 -10z m740 0 c0 -5 -2 -10 -4 -10 -3 0 -8 5 -11
10 -3 6 -1 10 4 10 6 0 11 -4 11 -10z m-272 -32 c2 -8 -4 -15 -13 -15 -8 0
-15 9 -15 20 0 22 23 18 28 -5z m-2515 -3 c-3 -9 -8 -14 -10 -11 -3 3 -2 9 2
15 9 16 15 13 8 -4z m2367 -2 c11 -17 11 -17 6 0 -3 9 -1 17 4 17 6 0 10 -11
10 -24 0 -18 -5 -23 -24 -23 -19 0 -23 5 -22 23 1 28 11 31 26 7z m-450 -48
c0 -14 -2 -25 -4 -25 -2 0 -6 11 -8 25 -3 14 -1 25 3 25 5 0 9 -11 9 -25z m30
-2 c0 -30 -9 -27 -15 6 -2 11 0 21 6 21 5 0 9 -12 9 -27z m57 -5 c-3 -7 -5 -2
-5 12 0 14 2 19 5 13 2 -7 2 -19 0 -25z m40 12 c-1 -22 -17 -28 -17 -7 0 12 9
27 16 27 2 0 2 -9 1 -20z m34 5 l9 20 -3 -20 c-1 -11 -7 -20 -12 -20 -5 0 -11
9 -12 20 l-2 20 6 -20 6 -20 8 20z m-201 -5 c0 -5 -2 -10 -4 -10 -3 0 -8 5
-11 10 -3 6 -1 10 4 10 6 0 11 -4 11 -10z m640 -30 c0 -11 -7 -20 -15 -20 -8
0 -15 9 -15 20 0 11 7 20 15 20 8 0 15 -9 15 -20z m-130 -2 c0 -6 -3 -9 -6 -5
-8 8 -33 -16 -27 -25 2 -5 -1 -8 -6 -8 -16 0 -13 16 5 34 18 19 34 21 34 4z
m2008 -27 c3 -8 -1 -12 -9 -9 -7 2 -15 10 -17 17 -3 8 1 12 9 9 7 -2 15 -10
17 -17z m2021 2 c0 -5 -3 -9 -9 -11 -5 -2 -10 4 -10 13 0 16 16 14 19 -2z
m556 11 c23 -9 45 -57 45 -99 0 -36 -35 -85 -60 -85 -47 0 -78 65 -60 129 13
50 39 69 75 55z m432 -30 c3 -8 -2 -23 -11 -33 -20 -22 -20 -35 -1 -51 12 -10
16 -9 21 4 11 28 26 18 19 -13 -3 -17 -2 -32 5 -36 17 -11 1 -26 -18 -16 -10
6 -22 5 -34 -3 -14 -8 -24 -8 -46 4 -32 19 -40 55 -17 80 14 15 14 21 3 40
-11 19 -10 24 10 41 19 14 28 16 43 8 11 -6 23 -17 26 -25z m653 21 c0 -8 -4
-15 -10 -15 -5 0 -10 7 -10 15 0 8 5 15 10 15 6 0 10 -7 10 -15z m-5953 -27
c-3 -7 -5 -2 -5 12 0 14 2 19 5 13 2 -7 2 -19 0 -25z m283 22 c0 -5 -4 -10
-10 -10 -5 0 -10 5 -10 10 0 6 5 10 10 10 6 0 10 -4 10 -10z m1280 0 c0 -5
-11 -10 -25 -10 -23 0 -24 -3 -27 -77 -2 -50 -7 -78 -15 -81 -10 -3 -13 17
-13 77 0 80 0 81 -25 81 -14 0 -25 5 -25 10 0 6 28 10 65 10 37 0 65 -4 65
-10z m50 -13 c0 -20 4 -23 35 -19 30 4 36 1 45 -23 13 -34 13 -105 0 -105 -5
0 -10 19 -10 43 0 46 -13 67 -41 67 -21 0 -29 -20 -29 -76 0 -24 -4 -44 -10
-44 -6 0 -10 37 -10 90 0 53 4 90 10 90 6 0 10 -10 10 -23z m362 -49 c3 -72 3
-73 31 -76 45 -5 57 13 57 84 0 36 4 64 10 64 6 0 10 -31 10 -74 0 -66 -3 -77
-22 -90 -32 -23 -65 -20 -93 9 -22 21 -25 33 -25 90 0 50 3 65 15 65 11 0 15
-17 17 -72z m168 -13 c0 -50 -4 -85 -10 -85 -6 0 -10 35 -10 85 0 50 4 85 10
85 6 0 10 -35 10 -85z m940 75 c0 -5 -20 -38 -45 -74 l-46 -65 48 -3 c67 -4
51 -22 -17 -19 -30 2 -56 4 -58 6 -6 5 26 61 42 74 9 7 22 26 30 42 l14 29
-44 0 c-24 0 -44 5 -44 10 0 6 27 10 60 10 33 0 60 -4 60 -10z m180 -13 c0
-20 4 -23 28 -20 44 6 56 -10 57 -69 0 -72 -19 -78 -25 -8 -5 51 -7 55 -30 55
-23 0 -25 -4 -28 -52 -5 -86 -22 -60 -22 32 0 50 4 85 10 85 6 0 10 -10 10
-23z m370 4 c25 -47 -3 -91 -57 -91 -30 0 -33 -3 -33 -29 0 -17 -4 -33 -10
-36 -6 -4 -10 14 -10 47 0 29 -3 70 -6 91 l-7 37 56 0 c45 0 58 -4 67 -19z
m620 -66 c0 -50 -4 -85 -10 -85 -6 0 -10 35 -10 85 0 50 4 85 10 85 6 0 10
-35 10 -85z m390 -5 c0 -53 -4 -90 -10 -90 -6 0 -10 37 -10 90 0 53 4 90 10
90 6 0 10 -37 10 -90z m98 3 c-4 -107 -22 -117 -26 -15 -3 70 -4 73 -25 66
-22 -7 -22 -6 -3 15 11 11 28 21 38 21 17 0 19 -7 16 -87z m224 40 l3 -48 28
28 c38 37 58 35 23 -2 l-29 -30 27 -31 c14 -17 26 -36 26 -41 0 -18 -16 -9
-38 21 -13 17 -27 30 -32 30 -6 0 -10 -13 -10 -30 0 -16 -4 -30 -10 -30 -6 0
-10 37 -10 90 0 94 17 126 22 43z m572 31 c9 -8 16 -26 16 -39 0 -33 -26 -55
-66 -55 -32 0 -34 -2 -34 -35 0 -19 -4 -35 -10 -35 -6 0 -10 37 -10 90 l0 90
44 0 c27 0 51 -6 60 -16z m66 -75 c0 -57 -4 -88 -10 -84 -5 3 -10 44 -10 91 0
49 4 84 10 84 6 0 10 -37 10 -91z m-5760 38 c-8 -9 -10 -8 -5 6 4 10 2 17 -5
17 -6 0 -8 5 -4 11 5 8 10 6 16 -6 7 -11 6 -21 -2 -28z m115 28 c-31 -13 -41
-13 -32 2 3 4 18 9 34 9 l28 1 -30 -12z m2255 1 c0 -8 6 -17 13 -20 10 -5 10
-7 0 -12 -20 -9 -17 -90 4 -98 11 -5 13 -10 6 -17 -13 -13 -41 -1 -47 19 -5
18 -10 95 -7 125 1 20 31 23 31 3z m490 -1 c0 -8 8 -15 18 -15 16 -1 16 -1 0
-14 -24 -18 -25 -91 -1 -100 12 -5 13 -10 5 -18 -21 -21 -42 10 -42 62 0 29
-5 51 -12 54 -10 5 -10 7 0 12 6 3 12 12 12 20 0 8 5 14 10 14 6 0 10 -7 10
-15z m-2890 -15 c0 -11 -2 -20 -4 -20 -2 0 -6 9 -9 20 -3 11 -1 20 4 20 5 0 9
-9 9 -20z m100 16 c0 -3 -4 -8 -10 -11 -5 -3 -10 -1 -10 4 0 6 5 11 10 11 6 0
10 -2 10 -4z m500 -37 c0 -10 -7 -19 -15 -19 -15 0 -21 31 -9 43 11 10 24 -3
24 -24z m1425 -9 c8 -16 15 -31 15 -35 0 -3 -22 -5 -50 -5 -52 0 -60 -8 -34
-34 19 -20 28 -20 44 -1 16 19 30 19 30 0 0 -14 -37 -35 -61 -35 -19 0 -49 41
-49 68 0 70 75 100 105 42z m455 -34 c0 -57 -8 -84 -21 -72 -8 8 3 136 12 136
5 0 9 -29 9 -64z m116 53 c8 -7 14 -7 19 1 8 14 48 13 63 -2 14 -14 16 -118 2
-118 -5 0 -10 19 -10 43 0 51 -11 70 -36 65 -15 -2 -20 -14 -22 -56 -4 -62
-22 -70 -22 -9 0 55 -13 76 -37 61 -13 -8 -18 -24 -18 -55 0 -64 -19 -64 -23
0 -2 29 -1 59 1 65 6 14 67 18 83 5z m212 -1 c7 -7 12 -37 12 -67 l0 -56 -41
0 c-73 0 -81 59 -10 79 17 5 31 13 31 18 0 15 -32 22 -50 10 -22 -13 -34 -4
-19 15 14 16 61 17 77 1z m237 -18 c8 -16 15 -31 15 -35 0 -3 -22 -5 -50 -5
-52 0 -60 -8 -34 -34 18 -18 30 -20 39 -6 8 13 35 13 35 0 0 -20 -48 -34 -74
-22 -33 15 -45 72 -22 107 24 37 71 34 91 -5z m344 16 c8 -9 8 -16 2 -20 -5
-4 -12 -2 -16 4 -8 13 -42 13 -50 0 -3 -5 11 -17 32 -27 48 -23 56 -57 19 -75
-31 -13 -76 2 -76 27 0 14 2 14 24 0 23 -15 56 -12 56 6 0 5 -18 16 -40 25
-41 17 -51 39 -28 62 16 16 63 15 77 -2z m563 -3 c28 -25 24 -88 -7 -109 -57
-38 -110 22 -80 92 11 27 20 34 41 34 15 0 36 -7 46 -17z m71 -30 c15 -50 18
-49 36 10 7 20 17 37 22 37 5 0 14 -20 20 -45 6 -25 15 -45 19 -45 4 0 11 20
14 45 5 31 12 45 23 45 8 0 13 -6 10 -12 -2 -7 -12 -39 -21 -71 -10 -34 -22
-57 -28 -55 -7 3 -18 24 -26 48 l-15 44 -14 -39 c-21 -62 -29 -61 -52 6 -24
71 -25 79 -11 79 5 0 16 -21 23 -47z m261 31 c30 -29 20 -51 -25 -57 -51 -7
-59 -15 -35 -33 17 -12 23 -12 42 1 20 13 34 11 34 -5 0 -4 -13 -13 -30 -20
-25 -10 -34 -10 -55 4 -20 13 -25 25 -25 56 0 44 20 70 55 70 13 0 31 -7 39
-16z m116 6 c0 -5 -9 -10 -19 -10 -23 0 -31 -19 -31 -71 0 -21 -4 -39 -10 -39
-10 0 -15 112 -5 121 9 10 65 9 65 -1z m100 -61 c0 -44 -4 -68 -10 -64 -5 3
-10 35 -10 71 0 36 4 64 10 64 6 0 10 -30 10 -71z m70 15 l17 -49 17 39 c9 21
16 45 16 52 0 8 5 14 10 14 14 0 12 -19 -8 -73 -26 -67 -38 -77 -53 -41 -6 16
-17 44 -25 62 -17 40 -18 55 -2 50 6 -2 19 -26 28 -54z m194 34 c29 -42 21
-56 -28 -51 -50 6 -64 -7 -37 -31 16 -14 23 -15 41 -6 33 18 48 6 17 -14 -35
-23 -74 -14 -87 20 -10 26 -4 70 13 92 16 20 64 14 81 -10z m1088 -30 c2 -42
7 -54 22 -56 25 -5 36 14 36 66 0 23 5 42 10 42 6 0 10 -30 10 -71 0 -57 -3
-69 -13 -61 -8 7 -18 7 -27 2 -36 -23 -60 7 -60 76 0 69 18 71 22 2z m228 -30
c0 -71 -2 -79 -24 -93 -24 -16 -70 -12 -82 7 -10 16 6 23 27 10 26 -16 59 1
59 30 0 17 -3 19 -12 10 -18 -18 -45 -15 -68 8 -24 24 -26 57 -5 88 13 17 24
21 60 20 l45 -2 0 -78z m60 18 c0 -36 -4 -68 -10 -71 -6 -4 -10 20 -10 64 0
41 4 71 10 71 6 0 10 -28 10 -64z m127 52 c15 -12 18 -128 3 -128 -5 0 -10 21
-10 48 0 55 -10 75 -36 70 -15 -2 -20 -14 -22 -56 -2 -37 -7 -52 -18 -52 -11
0 -14 15 -14 63 l0 63 42 1 c23 1 48 -3 55 -9z m-5791 -10 c14 -22 -14 -30
-34 -10 -19 19 -19 20 4 20 14 0 27 -5 30 -10z m-44 -30 c-7 -7 -12 -8 -12 -2
0 14 12 26 19 19 2 -3 -1 -11 -7 -17z m-239 -8 c-3 -11 -7 -20 -9 -20 -2 0 -4
9 -4 20 0 11 4 20 9 20 5 0 7 -9 4 -20z m-184 -27 c-15 -18 -34 -1 -25 22 5
14 9 15 21 5 12 -10 13 -16 4 -27z m31 12 c0 -8 -3 -16 -7 -18 -5 -3 -8 5 -8
18 0 13 3 21 8 18 4 -2 7 -10 7 -18z m53 5 c-3 -12 -8 -19 -11 -16 -5 6 5 36
12 36 2 0 2 -9 -1 -20z m42 -10 c-5 -8 -11 -8 -17 -2 -6 6 -7 16 -3 22 5 8 11
8 17 2 6 -6 7 -16 3 -22z m31 10 c0 -11 -4 -20 -8 -20 -4 0 -8 9 -8 20 0 11 4
20 8 20 4 0 8 -9 8 -20z m-196 0 c0 -5 -2 -10 -4 -10 -3 0 -8 5 -11 10 -3 6
-1 10 4 10 6 0 11 -4 11 -10z m628 -27 c-2 -10 -8 -18 -13 -18 -5 0 -11 8 -13
18 -2 10 3 17 13 17 10 0 15 -7 13 -17z m-122 -4 c3 -6 1 -16 -5 -22 -9 -9
-14 -8 -21 3 -8 13 -10 12 -10 -2 0 -10 -4 -18 -10 -18 -15 0 -12 11 7 32 18
21 29 23 39 7z m3124 -33 c0 -14 -5 -28 -11 -31 -15 -10 -18 -4 -12 28 7 34
23 36 23 3z m1686 2 c-3 -13 -6 -26 -6 -30 0 -5 -4 -8 -10 -8 -5 0 -10 14 -10
30 0 21 5 30 16 30 12 0 15 -6 10 -22z m-5246 -23 c0 -8 -4 -16 -9 -19 -5 -4
-7 4 -5 16 l5 23 -12 -22 c-7 -13 -19 -23 -28 -22 -10 0 -12 2 -3 6 6 2 12 11
12 18 0 14 20 25 33 18 4 -2 7 -10 7 -18z m553 -2 c-7 -2 -13 -11 -13 -19 0
-9 5 -12 12 -8 7 5 8 3 3 -5 -5 -9 -11 -9 -17 -3 -13 13 -3 42 14 41 10 0 10
-2 1 -6z m-117 -39 c-5 -13 -10 -14 -18 -6 -6 6 -8 18 -4 28 5 13 10 14 18 6
6 -6 8 -18 4 -28z m-429 -30 c3 -8 0 -21 -6 -27 -9 -9 -11 -8 -5 7 4 11 2 21
-7 27 -10 6 -11 9 -1 9 7 0 15 -7 19 -16z m88 6 c3 -5 1 -10 -4 -10 -6 0 -11
5 -11 10 0 6 2 10 4 10 3 0 8 -4 11 -10z m-165 -20 c0 -11 -4 -20 -8 -20 -4 0
-8 9 -8 20 0 11 4 20 8 20 4 0 8 -9 8 -20z m30 10 c-13 -9 -13 -11 0 -20 9 -6
10 -10 3 -10 -15 0 -26 17 -18 30 3 6 12 10 18 10 7 0 6 -4 -3 -10z m596 -20
c0 -11 -4 -20 -8 -20 -4 0 -8 9 -8 20 0 11 4 20 8 20 4 0 8 -9 8 -20z m-116
-20 c0 -11 -4 -20 -10 -20 -5 0 -6 7 -3 17 4 11 3 14 -5 9 -7 -4 -12 -2 -12 3
0 6 7 11 15 11 8 0 15 -9 15 -20z m1264 -2 c5 -9 7 -21 2 -25 -4 -4 -12 0 -17
10 -12 21 -52 22 -69 2 -17 -21 -1 -38 50 -55 48 -16 63 -49 35 -80 -24 -27
-86 -27 -110 0 -25 28 -12 35 25 14 23 -14 35 -16 48 -8 30 19 21 47 -18 56
-63 16 -83 63 -41 96 22 17 81 11 95 -10z m724 11 c-10 -5 -18 -17 -18 -24 0
-8 8 -15 18 -15 16 -1 16 -1 0 -14 -12 -9 -18 -27 -18 -54 0 -45 -8 -72 -21
-72 -5 0 -9 27 -9 59 0 38 -5 61 -12 65 -10 5 -10 7 0 12 6 3 12 14 12 23 0
24 9 31 39 31 23 -1 24 -2 9 -11z m492 1 c0 -5 -13 -10 -30 -10 l-30 0 0 -85
c0 -69 -3 -85 -15 -85 -12 0 -15 16 -15 85 l0 85 -30 0 c-16 0 -30 5 -30 10 0
6 32 10 75 10 43 0 75 -4 75 -10z m1035 -16 c35 -38 35 -105 0 -139 -19 -20
-34 -25 -75 -25 l-50 0 0 95 0 95 50 0 c42 0 55 -5 75 -26z m235 -2 c0 -26 3
-28 30 -24 43 6 70 -21 70 -68 0 -50 -23 -70 -83 -68 l-47 1 0 87 c0 47 3 90
7 93 14 14 23 6 23 -21z m160 18 c0 -5 -7 -10 -15 -10 -8 0 -15 5 -15 10 0 6
7 10 15 10 8 0 15 -4 15 -10z m571 -11 c9 -17 7 -26 -9 -48 -20 -27 -20 -28
-1 -52 l19 -24 6 22 c9 31 27 17 19 -14 -3 -14 -1 -30 4 -37 16 -20 -100 -19
-121 1 -21 19 -23 56 -5 72 8 6 12 23 9 41 -6 44 3 60 37 60 21 0 34 -7 42
-21z m169 -50 c0 -73 12 -98 49 -99 35 0 51 31 51 102 0 39 4 68 10 68 6 0 10
-32 10 -77 0 -57 -4 -81 -17 -95 -24 -27 -78 -24 -108 7 -22 21 -25 33 -25 95
0 56 3 70 15 70 12 0 15 -15 15 -71z m190 43 c0 -26 3 -28 30 -24 43 6 70 -21
70 -68 0 -49 -24 -70 -77 -68 -36 1 -42 4 -47 29 -7 37 5 159 15 159 5 0 9
-13 9 -28z m-3350 -2 c0 -11 7 -20 15 -20 8 0 15 -4 15 -10 0 -5 -7 -10 -15
-10 -11 0 -15 -12 -15 -44 0 -34 5 -47 23 -60 l22 -16 -30 2 c-29 3 -30 5 -33
58 -2 30 -9 58 -15 63 -9 7 -9 10 1 14 6 2 12 13 12 24 0 10 5 19 10 19 6 0
10 -9 10 -20z m3817 3 c4 -10 11 -22 17 -26 8 -6 7 -10 -1 -14 -20 -7 -17
-103 2 -103 8 0 15 -4 15 -10 0 -14 -33 -13 -48 2 -7 7 -12 33 -12 59 0 28 -5
50 -12 53 -10 5 -10 7 0 12 6 3 12 14 12 25 0 24 18 25 27 2z m-4947 -1 c0 -4
-10 -9 -22 -9 -44 -3 -62 -10 -69 -29 -7 -17 -8 -17 -8 4 -1 13 -8 22 -18 23
-24 2 44 16 85 18 17 0 32 -3 32 -7z m-700 -27 c0 -8 -4 -15 -10 -15 -5 0 -10
7 -10 15 0 8 5 15 10 15 6 0 10 -7 10 -15z m498 2 c-7 -8 -20 -12 -30 -9 -13
3 -18 -1 -18 -16 0 -15 5 -19 20 -15 13 4 20 0 20 -10 0 -11 -18 -16 -76 -22
-41 -4 -78 -4 -81 -1 -4 3 1 6 10 6 10 0 17 4 17 9 0 4 11 6 25 3 19 -3 25 0
25 14 0 17 1 16 15 -2 14 -19 14 -18 15 3 0 20 -4 22 -47 21 -27 -1 -52 -7
-56 -13 -5 -6 -7 -2 -5 10 3 17 13 21 83 26 44 3 84 6 88 7 4 1 2 -4 -5 -11z
m-614 -6 c-8 -8 -43 -8 -38 0 2 4 13 7 24 6 10 -1 17 -3 14 -6z m18 -23 c-8
-8 -9 -4 -5 13 4 13 8 18 11 10 2 -7 -1 -18 -6 -23z m1860 8 c18 -40 5 -56
-48 -56 -47 0 -55 -13 -21 -34 12 -8 22 -7 37 2 25 15 30 15 30 -2 0 -31 -71
-35 -100 -6 -24 24 -26 67 -4 98 23 33 90 31 106 -2z m158 -31 c0 -40 4 -57
15 -61 27 -11 45 16 45 67 0 37 4 49 15 49 12 0 15 -14 15 -69 l0 -69 -52 1
-53 2 -3 68 c-2 42 1 67 8 67 6 0 10 -23 10 -55z m231 39 c12 -11 19 -31 19
-54 0 -47 -27 -74 -70 -68 -27 4 -30 2 -30 -24 0 -18 -5 -28 -14 -28 -12 0
-14 13 -11 63 1 34 3 76 4 93 1 28 4 30 42 33 28 1 48 -4 60 -15z m319 -3 c30
-57 -2 -126 -56 -119 -57 7 -80 80 -38 122 22 23 81 21 94 -3z m120 9 c0 -5
-10 -10 -22 -12 -20 -3 -23 -10 -26 -60 -2 -43 -7 -58 -17 -58 -12 0 -15 15
-15 69 l0 69 40 0 c22 0 40 -3 40 -8z m338 -2 c5 -7 12 -24 14 -38 3 -24 0
-25 -49 -28 -58 -3 -68 -16 -27 -34 20 -9 30 -9 46 1 24 15 35 7 18 -14 -17
-20 -69 -19 -92 2 -23 20 -24 80 -1 105 19 21 75 24 91 6z m122 6 c0 -2 -11
-9 -25 -14 -23 -9 -25 -15 -25 -65 0 -30 -4 -55 -10 -55 -6 0 -10 29 -10 68
l0 69 35 1 c19 1 35 -1 35 -4z m198 -6 c14 -12 17 -128 2 -128 -5 0 -10 26
-12 58 -3 50 -6 57 -25 60 -28 4 -45 -28 -41 -75 2 -23 -2 -38 -10 -41 -8 -2
-12 12 -12 52 0 42 -4 58 -16 63 -23 9 -34 -8 -41 -65 -8 -75 -23 -64 -23 17
l0 68 83 1 c45 0 88 -4 95 -10z m72 -43 c0 -42 4 -57 16 -62 31 -12 49 11 52
66 4 76 22 62 22 -17 l0 -69 -32 -1 c-74 -2 -78 2 -78 73 0 37 4 65 10 65 6 0
10 -25 10 -55z m150 47 c0 -5 6 -17 14 -28 14 -18 15 -18 25 9 6 15 18 27 27
27 14 0 14 -4 -4 -34 -20 -33 -20 -33 0 -65 26 -41 13 -55 -16 -18 l-22 27
-21 -27 c-28 -37 -39 -24 -14 17 19 32 19 33 0 66 -15 28 -16 34 -4 34 8 0 15
-4 15 -8z m550 -11 c5 -11 10 -29 10 -40 0 -18 -6 -21 -50 -21 -52 0 -61 -8
-34 -31 12 -10 22 -10 47 -1 35 13 45 9 27 -13 -17 -20 -69 -19 -92 2 -23 20
-24 80 -1 105 22 25 79 24 93 -1z m230 -51 c0 -56 -3 -70 -15 -70 -12 0 -15
14 -15 70 0 56 3 70 15 70 12 0 15 -14 15 -70z m138 -1 l3 -67 -47 2 c-81 2
-89 61 -10 79 43 11 49 37 8 37 -15 0 -33 -5 -40 -12 -9 -9 -12 -9 -12 3 0 25
11 30 55 27 l40 -3 3 -66z m154 32 c12 -43 7 -93 -9 -99 -10 -3 -13 12 -13 52
0 43 -4 58 -16 63 -31 12 -49 -11 -52 -66 -5 -76 -22 -62 -22 18 l0 69 52 -2
c50 -1 52 -2 60 -35z m790 -7 c-4 -50 19 -84 45 -68 13 8 19 26 21 63 4 76 22
62 22 -17 l0 -69 -45 -1 c-54 -2 -65 13 -65 88 0 36 4 50 12 48 8 -3 11 -19
10 -44z m236 -26 c2 -43 -1 -68 -8 -68 -6 0 -10 25 -10 61 0 60 0 60 -27 57
-27 -3 -28 -6 -31 -60 -2 -43 -7 -58 -17 -58 -12 0 -15 15 -15 69 l0 69 53 -2
52 -1 3 -67z m164 21 c6 -95 68 -93 68 2 0 27 5 49 10 49 6 0 10 -29 10 -68
l0 -69 -32 -1 c-74 -2 -78 2 -78 73 0 77 18 88 22 14z m-5225 19 c-3 -8 -6 -5
-6 6 -1 11 2 17 5 13 3 -3 4 -12 1 -19z m-262 -8 c12 -37 -3 -60 -39 -60 -18
0 -55 -2 -82 -5 l-49 -4 45 10 c25 6 58 12 73 13 25 1 46 19 47 39 0 12 -63
-3 -72 -17 -6 -8 -8 -7 -8 2 0 7 -15 12 -42 12 -53 0 -41 12 20 21 86 12 100
10 107 -11z m455 -2 c-25 -5 -63 -7 -85 -6 -36 3 -34 4 25 14 76 12 130 5 60
-8z m-1235 -39 c0 -13 -6 -24 -12 -24 -7 0 -13 3 -13 8 0 4 0 16 0 28 0 12 5
19 13 17 6 -3 12 -16 12 -29z m535 -3 c0 -34 -15 -45 -63 -46 -14 0 -16 4 -7
19 12 24 -4 38 -24 21 -11 -8 -15 -8 -19 2 -3 7 -6 3 -6 -9 -1 -16 5 -23 17
-23 14 0 15 -2 2 -10 -8 -5 -33 -9 -55 -8 -37 1 -37 2 -7 5 27 4 32 9 32 30 0
16 -5 23 -12 20 -7 -2 -22 -1 -33 3 -14 5 -2 10 45 17 36 6 80 11 98 12 30 1
32 -1 32 -33z m-610 13 c0 -6 -6 -7 -12 -3 -10 6 -10 4 0 -7 17 -19 15 -39 -5
-39 -12 0 -14 3 -7 8 9 5 8 11 -2 20 -8 8 -14 9 -15 2 -1 -5 -2 -14 -3 -20 -2
-22 -20 -8 -19 15 1 14 1 26 2 28 3 8 61 4 61 -4z m734 -5 c3 -8 2 -12 -4 -9
-6 3 -10 10 -10 16 0 14 7 11 14 -7z m-854 -31 c0 -43 -5 -41 -13 5 -4 18 -2
32 3 32 6 0 10 -16 10 -37z m-44 10 c5 3 9 -6 9 -19 0 -15 -5 -22 -12 -20 -6
3 -14 0 -17 -7 -2 -7 -5 6 -5 28 0 26 2 35 8 26 5 -7 13 -11 17 -8z m564 7 c0
-5 -5 -10 -11 -10 -5 0 -7 5 -4 10 3 6 8 10 11 10 2 0 4 -4 4 -10z m1227 4
c-3 -3 -12 -4 -19 -1 -8 3 -5 6 6 6 11 1 17 -2 13 -5z m-1940 -51 c-3 -10 -5
-2 -5 17 0 19 2 27 5 18 2 -10 2 -26 0 -35z m100 0 c-3 -10 -5 -2 -5 17 0 19
2 27 5 18 2 -10 2 -26 0 -35z m583 33 c0 -8 -4 -17 -8 -20 -4 -2 -8 4 -8 15 0
10 4 19 8 19 4 0 8 -6 8 -14z m1193 7 c-7 -2 -21 -2 -30 0 -10 3 -4 5 12 5 17
0 24 -2 18 -5z m-3464 -29 c-6 -7 -8 -18 -4 -24 3 -5 1 -10 -4 -10 -6 0 -11
13 -11 30 0 22 4 28 15 24 12 -5 13 -10 4 -20z m94 19 c-7 -2 -13 -14 -14 -26
0 -12 -3 -16 -6 -9 -7 18 4 42 19 41 10 0 10 -2 1 -6z m1563 -2 c-4 -5 -1 -11
6 -13 16 -6 2 -38 -17 -38 -10 0 -15 10 -15 30 0 21 5 30 16 30 8 0 13 -4 10
-9z m-1600 -13 c5 -8 2 -9 -9 -5 -18 7 -19 -12 -2 -26 6 -5 4 -7 -5 -4 -21 5
-26 47 -6 47 8 0 18 -5 22 -12z m1460 -13 c-1 -17 -6 -23 -14 -20 -8 3 -15 5
-18 5 -2 0 4 9 13 20 22 25 21 25 19 -5z m4614 16 c0 -18 -20 -61 -28 -61 -4
0 -6 16 -4 35 3 21 10 35 18 35 8 0 14 -4 14 -9z m990 -20 c0 -28 -15 -49 -27
-38 -8 8 7 67 18 67 5 0 9 -13 9 -29z m1280 14 c0 -8 -7 -15 -15 -15 -8 0 -15
7 -15 15 0 8 7 15 15 15 8 0 15 -7 15 -15z m-8442 -19 c0 -17 -5 -23 -14 -19
-8 3 -14 12 -14 20 0 8 5 11 10 8 6 -3 10 -1 10 4 0 6 2 11 4 11 2 0 4 -11 4
-24z m-92 -2 c-4 -11 -2 -15 8 -11 8 3 17 1 20 -6 2 -7 5 -5 5 5 1 9 -5 19
-11 21 -8 4 -7 6 3 6 16 1 35 -38 21 -40 -42 -7 -62 -6 -62 4 0 7 -4 6 -10 -3
-8 -12 -10 -11 -10 7 0 12 8 23 18 26 9 3 19 5 21 6 2 0 0 -6 -3 -15z m1451
-6 c-3 -8 -6 -5 -6 6 -1 11 2 17 5 13 3 -3 4 -12 1 -19z m-49 -19 c-6 -16 -12
-28 -14 -26 -5 5 13 57 20 57 3 0 0 -14 -6 -31z m-1498 7 c0 -8 -4 -18 -10
-21 -5 -3 -10 -1 -10 4 0 6 -8 11 -17 12 -15 0 -15 2 2 9 29 12 35 12 35 -4z
m1335 -31 c0 -14 -2 -25 -6 -25 -8 0 -18 48 -11 55 9 8 15 -4 17 -30z m86 26
c-9 -6 -10 -11 -2 -15 17 -11 13 -26 -6 -26 -15 0 -16 2 -3 10 10 6 11 10 3
10 -7 0 -13 7 -13 15 0 8 8 15 18 15 13 0 14 -2 3 -9z m-162 -44 c-1 -18 -2
-19 -6 -4 -3 11 -11 16 -19 13 -9 -4 -14 2 -14 15 0 17 3 18 20 9 12 -6 20
-20 19 -33z m36 33 c3 -5 1 -10 -6 -10 -8 0 -8 -4 1 -15 7 -9 8 -15 2 -15 -10
0 -22 23 -22 41 0 12 17 12 25 -1z m69 -5 c-4 -8 -1 -15 4 -15 6 0 13 8 15 18
4 13 5 13 6 -4 0 -12 -6 -27 -14 -34 -8 -7 -15 -9 -15 -4 0 5 -3 19 -6 32 -4
13 -2 22 5 22 5 0 8 -7 5 -15z m176 0 c0 -8 -4 -15 -10 -15 -5 0 -7 7 -4 15 4
8 8 15 10 15 2 0 4 -7 4 -15z m-373 -42 c11 -5 12 -7 2 -14 -20 -12 -29 -1
-28 34 1 25 3 27 6 9 3 -13 11 -26 20 -29z m-52 28 c-3 -5 -1 -12 5 -16 17
-10 11 -35 -7 -35 -16 0 -16 2 -3 11 11 8 12 12 3 16 -16 6 -17 33 -2 33 5 0
8 -4 4 -9z m-83 -38 l-6 -28 -6 25 c-7 27 -3 43 9 35 5 -2 6 -17 3 -32z m42
26 c-3 -6 -1 -15 6 -19 16 -10 4 -30 -18 -29 -14 0 -13 2 3 8 18 7 18 8 1 18
-18 10 -15 33 5 33 6 0 7 -5 3 -11z m-172 -34 c2 -19 1 -35 -3 -35 -4 0 -9 16
-11 35 -2 19 -1 35 3 35 4 0 9 -16 11 -35z m-177 -25 c0 -22 -3 -40 -7 -40
-10 0 -11 64 -1 73 3 4 7 7 7 7 1 0 1 -18 1 -40z m132 15 c-9 -19 -13 -21 -15
-9 -3 13 12 33 25 34 0 0 -4 -11 -10 -25z m-91 -7 c-19 -11 -19 -11 -1 -24 16
-12 16 -14 3 -14 -21 0 -32 31 -16 42 7 4 18 8 23 8 6 -1 1 -6 -9 -12z m46
-18 c5 0 8 7 4 15 -3 8 -1 15 4 15 6 0 10 -9 10 -20 0 -13 -7 -20 -20 -20 -14
0 -20 6 -19 23 1 16 2 18 6 5 2 -10 9 -18 15 -18z m6038 20 c0 -5 -7 -10 -15
-10 -22 0 -19 -40 3 -41 16 -1 16 -2 0 -6 -15 -4 -18 -16 -18 -69 0 -36 -4
-64 -10 -64 -5 0 -10 21 -10 46 0 25 -5 54 -10 64 -11 21 3 69 23 82 17 11 37
10 37 -2z m-6170 -15 c-9 -10 -9 -15 -1 -15 6 0 11 -5 11 -10 0 -7 -7 -7 -21
0 -16 9 -18 14 -8 26 6 8 16 14 21 14 6 0 5 -7 -2 -15z m3660 5 c0 -5 -18 -10
-40 -10 -28 0 -40 -4 -40 -14 0 -8 -3 -21 -6 -30 -5 -13 2 -16 34 -16 55 0 63
-18 10 -22 -43 -3 -43 -3 -46 -45 -6 -81 -22 -43 -22 52 l0 95 55 0 c30 0 55
-4 55 -10z m616 -65 c16 -41 31 -75 34 -75 4 0 12 17 19 38 48 145 71 150 71
17 0 -57 -4 -95 -10 -95 -6 0 -10 31 -11 73 l0 72 -28 -70 c-16 -38 -34 -70
-41 -70 -7 0 -24 29 -39 65 l-26 64 -3 -67 c-4 -103 -22 -80 -22 28 0 120 16
126 56 20z m442 -17 l-3 -93 -42 -3 c-65 -4 -99 46 -73 109 12 28 17 30 52 27
36 -3 38 -2 38 24 0 19 5 28 15 28 13 0 15 -15 13 -92z m212 -3 c0 -57 -4 -95
-10 -95 -6 0 -10 38 -10 95 0 57 4 95 10 95 6 0 10 -38 10 -95z m516 87 c18
-12 24 -43 13 -64 -8 -14 -8 -23 0 -31 18 -18 13 -65 -8 -77 -11 -5 -40 -10
-65 -10 l-46 0 0 95 0 95 48 0 c26 0 52 -4 58 -8z m624 -2 c0 -5 -4 -10 -9
-10 -6 0 -13 5 -16 10 -3 6 1 10 9 10 9 0 16 -4 16 -10z m300 -85 c0 -57 -4
-95 -10 -95 -6 0 -10 38 -10 95 0 57 4 95 10 95 6 0 10 -38 10 -95z m-6453 59
c2 -13 1 -15 -4 -4 -3 8 -11 19 -17 23 -7 6 -6 7 4 4 8 -2 16 -12 17 -23z
m4093 6 c0 -12 7 -20 18 -20 16 -1 16 -1 0 -14 -23 -17 -25 -94 -3 -102 23 -9
18 -26 -7 -22 -20 3 -23 10 -26 58 -2 34 -8 59 -18 66 -13 10 -13 12 1 18 8 3
15 12 15 21 0 8 5 15 10 15 6 0 10 -9 10 -20z m1970 0 c0 -12 7 -20 18 -20 16
-1 16 -1 0 -14 -29 -21 -22 -106 8 -106 8 0 14 -4 14 -10 0 -14 -33 -13 -48 2
-7 7 -12 33 -12 58 0 25 -5 51 -12 58 -9 9 -9 12 0 12 7 0 12 9 12 20 0 11 5
20 10 20 6 0 10 -9 10 -20z m-6191 -18 c12 -12 12 -15 0 -23 -8 -5 -21 -8 -29
-8 -10 1 -9 3 3 6 19 5 18 30 -1 26 -5 -1 -13 4 -16 12 -6 17 21 9 43 -13z
m38 -3 c1 -19 1 -20 -4 -4 -3 11 -10 24 -17 28 -7 6 -6 7 4 4 8 -2 16 -14 17
-28z m35 24 c-9 -4 -10 -8 -2 -18 8 -10 8 -15 -1 -21 -7 -4 -9 -3 -5 4 3 6 2
13 -4 17 -16 10 -12 25 8 24 11 0 12 -2 4 -6z m3938 -43 c6 -12 10 -42 8 -67
l-3 -47 -47 -3 c-38 -3 -49 0 -58 16 -18 35 12 71 59 71 13 0 21 6 21 16 0 14
-7 15 -40 10 -32 -5 -40 -3 -40 9 0 25 86 21 100 -5z m135 9 c11 -16 -4 -24
-23 -13 -21 13 -42 7 -42 -11 0 -7 14 -16 30 -20 17 -4 35 -15 40 -25 13 -24
13 -26 -6 -44 -18 -19 -65 -21 -82 -4 -16 16 -15 28 3 28 8 0 15 -5 15 -11 0
-14 42 -7 47 8 3 7 -11 19 -30 27 -43 17 -51 30 -37 56 12 22 73 29 85 9z
m615 -4 c19 -23 16 -81 -5 -105 -24 -27 -70 -26 -89 2 -18 26 -20 56 -6 92 8
22 16 26 49 26 22 0 44 -6 51 -15z m230 -34 c0 -31 5 -53 15 -61 26 -21 45 5
45 61 0 37 4 49 15 49 12 0 15 -14 15 -67 l0 -68 -45 -2 c-35 -1 -47 3 -55 17
-13 24 -13 120 0 120 6 0 10 -22 10 -49z m288 -22 l3 -66 -42 -1 c-46 -2 -69
11 -69 39 0 22 37 49 67 49 26 0 30 12 9 29 -11 10 -20 10 -36 1 -24 -13 -36
-8 -25 10 4 6 25 10 48 8 l42 -3 3 -66z m122 66 c0 -3 -11 -10 -25 -15 -23 -9
-25 -15 -25 -65 0 -42 -3 -55 -15 -55 -12 0 -15 14 -15 70 l0 70 40 0 c22 0
40 -2 40 -5z m418 -7 c7 -7 12 -22 12 -35 0 -21 -4 -23 -50 -23 -54 0 -55 -1
-40 -31 12 -22 32 -24 60 -7 24 15 37 4 20 -17 -7 -8 -27 -15 -46 -15 -54 0
-80 55 -52 115 9 20 18 25 48 25 20 0 41 -5 48 -12z m150 -58 l3 -66 -43 -1
c-46 -2 -68 10 -68 38 0 22 37 49 67 49 26 0 30 12 9 29 -11 10 -20 10 -36 1
-24 -13 -36 -8 -25 10 4 6 25 10 48 8 l42 -3 3 -65z m62 27 c0 -57 19 -84 48
-68 18 10 22 21 22 61 0 28 5 50 10 50 6 0 10 -30 10 -70 0 -40 -4 -70 -10
-70 -5 0 -10 5 -10 12 0 9 -3 9 -12 0 -17 -17 -44 -15 -62 4 -18 17 -23 124
-6 124 6 0 10 -19 10 -43z m250 -27 c0 -40 -4 -70 -10 -70 -6 0 -10 30 -10 70
0 40 4 70 10 70 6 0 10 -30 10 -70z m152 19 c6 -95 68 -93 68 2 0 27 5 49 10
49 6 0 10 -30 10 -69 l0 -69 -44 2 c-25 1 -48 5 -52 9 -13 12 -18 127 -6 127
6 0 12 -23 14 -51z m-6742 7 c0 -14 -21 -26 -45 -26 -21 0 -28 33 -9 47 19 14
54 1 54 -21z m124 28 c25 -9 19 -24 -9 -24 -24 0 -32 10 -18 23 8 8 8 8 27 1z
m9186 -63 c12 -23 13 -90 2 -108 -13 -21 -77 -26 -95 -8 -27 27 -20 61 20 100
41 40 58 43 73 16z m-9310 -48 c0 -16 3 -38 6 -49 4 -16 0 -23 -17 -27 -13 -4
-25 -5 -26 -3 -2 2 -6 26 -10 55 -6 50 -5 51 21 51 22 0 26 -4 26 -27z m4620
7 c0 -11 -7 -20 -15 -20 -15 0 -21 21 -8 33 12 13 23 7 23 -13z m2343 -11
c-17 -17 -37 -1 -22 17 8 10 15 12 23 4 7 -7 7 -13 -1 -21z m-1215 9 c-6 -18
-28 -21 -28 -4 0 9 7 16 16 16 9 0 14 -5 12 -12z m-5848 -38 c0 -5 -4 -10 -10
-10 -5 0 -10 5 -10 10 0 6 5 10 10 10 6 0 10 -4 10 -10z m3731 -214 c30 -6 34
-33 7 -42 -10 -3 -18 -10 -18 -15 0 -6 -4 -8 -8 -5 -13 8 -83 -14 -78 -23 3
-4 -1 -8 -9 -8 -8 0 -15 7 -15 16 -1 14 -2 14 -13 1 -12 -16 -47 -16 -47 1 0
5 -11 9 -25 9 -14 0 -25 -4 -25 -10 0 -5 -9 -10 -20 -10 -18 0 -24 -10 -21
-35 1 -5 -5 -1 -14 9 -11 15 -17 17 -29 7 -10 -9 -16 -9 -21 -1 -5 8 -10 8
-20 0 -10 -8 -15 -8 -21 1 -5 9 -11 7 -21 -6 -7 -11 -13 -16 -13 -12 0 4 -18
-4 -39 -17 -21 -14 -42 -22 -45 -18 -4 3 -4 -2 0 -12 6 -16 2 -17 -31 -12 -22
4 -41 2 -45 -3 -7 -13 -185 -61 -224 -61 -16 0 -81 -12 -145 -26 -114 -25
-253 -55 -320 -69 -28 -6 -33 -5 -28 8 3 8 3 17 0 20 -7 8 -32 -16 -26 -25 2
-4 -3 -5 -12 -2 -8 4 -22 1 -30 -6 -10 -9 -15 -9 -15 -1 0 6 4 11 10 11 21 0
-2 25 -25 27 -61 6 -61 6 -57 38 5 34 20 56 36 53 6 -1 31 2 56 7 25 4 60 9
78 10 19 1 37 7 41 14 4 6 15 9 23 6 9 -4 22 0 29 8 10 11 21 12 38 6 18 -7
29 -5 43 8 11 10 23 17 27 15 6 -3 84 7 106 14 45 14 136 30 141 25 4 -3 4 2
1 12 -4 11 -1 17 9 17 8 0 12 -4 9 -10 -4 -6 9 -8 37 -4 24 3 86 7 138 10 110
5 137 8 146 17 4 3 15 2 25 -4 11 -5 19 -6 19 -2 0 4 4 2 8 -5 7 -10 18 -8 53
7 26 12 48 16 53 11 5 -5 17 -5 29 2 11 6 34 12 51 13 17 2 37 3 44 4 7 1 10
5 7 11 -7 12 39 24 60 16 8 -3 15 -1 15 5 0 6 6 9 13 6 6 -2 21 -1 32 3 19 7
24 7 76 -4z m2794 -486 c3 -5 2 -10 -4 -10 -5 0 -13 5 -16 10 -3 6 -2 10 4 10
5 0 13 -4 16 -10z m-5545 -18 c0 -13 -12 -22 -22 -16 -10 6 -1 24 13 24 5 0 9
-4 9 -8z m-215 -38 c11 -1 33 -7 49 -13 27 -11 28 -12 12 -30 -13 -15 -14 -20
-4 -24 8 -4 7 -6 -4 -6 -10 -1 -18 -6 -18 -13 0 -6 -6 -4 -13 7 -10 12 -16 14
-21 7 -4 -7 -5 -16 -1 -21 3 -5 1 -12 -5 -16 -5 -3 -10 3 -10 15 0 22 -13 21
-92 -6 -20 -7 -39 -10 -42 -7 -3 4 -6 1 -6 -6 0 -8 -8 -11 -18 -9 -10 3 -23
-1 -30 -9 -10 -10 -18 -10 -33 -3 -13 7 -25 8 -37 1 -16 -10 -16 -10 0 -11 12
0 15 -5 11 -16 -5 -13 -7 -13 -14 -2 -8 12 -13 4 -10 -14 0 -5 -2 -8 -6 -9
-11 -1 -34 -6 -67 -14 -21 -6 -27 -5 -22 3 5 8 2 10 -8 6 -9 -3 -16 -10 -16
-15 0 -5 -7 -9 -15 -9 -16 0 -10 27 8 33 7 2 1 2 -11 0 -13 -2 -30 1 -37 7 -9
8 -24 8 -48 2 -24 -7 -43 -6 -65 4 -36 15 -43 3 -11 -19 15 -11 17 -17 8 -23
-7 -4 -14 -3 -17 4 -5 15 -32 3 -32 -13 0 -8 8 -12 20 -10 11 2 20 0 20 -4 0
-12 -112 -32 -180 -32 -70 -1 -90 2 -90 14 0 6 -13 6 -32 2 -18 -4 -44 -8 -58
-9 -14 -1 -30 -5 -36 -8 -5 -4 -16 -2 -24 3 -12 8 -12 12 -2 16 20 8 14 22 -8
16 -11 -3 -20 0 -20 6 0 6 5 11 11 11 5 0 7 4 4 10 -4 6 1 7 11 3 11 -4 15 -2
11 4 -4 6 2 13 13 16 14 3 18 1 13 -6 -4 -7 7 -1 24 13 17 14 29 28 27 32 -6
9 35 -3 42 -13 7 -12 34 -11 34 1 0 5 -8 7 -17 4 -15 -5 -16 -4 -3 5 8 6 23 8
33 5 9 -3 17 0 17 6 0 6 6 10 13 7 6 -2 20 2 30 11 9 8 17 11 17 5 0 -7 15 -8
42 -3 24 5 47 6 51 3 5 -3 19 -1 30 5 54 27 98 41 90 29 -5 -9 -3 -9 9 1 8 7
23 10 32 6 9 -3 16 -2 16 4 0 5 14 9 30 8 17 -1 35 1 42 5 7 4 21 3 31 -3 14
-7 17 -7 13 1 -9 14 0 14 25 1 15 -9 19 -7 19 6 0 10 5 14 15 11 8 -4 17 -2
20 3 11 17 25 11 25 -11 0 -11 4 -18 10 -14 5 3 7 12 4 19 -4 9 5 12 33 11 41
-3 86 13 77 26 -7 11 -1 11 30 -1 16 -6 27 -6 31 1 4 5 10 7 15 4 5 -3 11 -1
15 5 4 6 12 7 18 3 6 -4 20 -8 32 -9z m6000 -4 c13 -5 14 -9 5 -9 -8 0 -24 4
-35 9 -13 5 -14 9 -5 9 8 0 24 -4 35 -9z m-6038 -97 c-4 -3 -2 -12 4 -20 7 -8
8 -13 1 -13 -12 0 -23 26 -15 34 4 3 9 6 11 6 3 0 2 -3 -1 -7z m-60 -33 c-1
-11 -7 -20 -14 -20 -11 0 -11 4 -1 20 7 11 14 20 15 20 1 0 1 -9 0 -20z m38 0
c3 -5 1 -10 -4 -10 -6 0 -11 5 -11 10 0 6 2 10 4 10 3 0 8 -4 11 -10z m3885
-20 c0 -5 -7 -10 -15 -10 -8 0 -15 5 -15 10 0 6 7 10 15 10 8 0 15 -4 15 -10z
m925 -30 c-3 -5 -14 -10 -23 -10 -15 0 -15 2 -2 10 20 13 33 13 25 0z m-1095
-20 c0 -5 -4 -10 -10 -10 -5 0 -10 5 -10 10 0 6 5 10 10 10 6 0 10 -4 10 -10z
m-4829 -32 c1 -7 1 -17 0 -21 -1 -5 8 -5 20 -2 20 7 20 6 4 -19 -14 -21 -20
-24 -31 -15 -12 10 -13 8 -8 -6 5 -13 3 -16 -7 -13 -8 3 -13 10 -12 15 1 5 -7
10 -18 11 -42 4 -48 6 -43 13 2 4 -2 10 -8 13 -7 4 -3 4 9 2 12 -2 24 2 27 9
4 12 14 16 59 24 4 0 8 -5 8 -11z m329 -47 c-8 -5 -28 -11 -45 -14 l-30 -6 30
14 c34 16 72 21 45 6z m4120 -11 c0 -5 -2 -10 -4 -10 -3 0 -8 5 -11 10 -3 6
-1 10 4 10 6 0 11 -4 11 -10z m-5025 -26 c22 1 55 -4 73 -12 25 -11 39 -12 57
-4 15 7 26 8 30 2 4 -6 -1 -10 -10 -10 -9 0 -13 -4 -10 -10 4 -6 -7 -10 -24
-10 -17 0 -31 -5 -31 -11 0 -5 5 -7 10 -4 6 3 10 1 10 -4 0 -6 -4 -11 -10 -11
-15 0 -22 -1 -68 -15 -40 -12 -42 -12 -30 3 11 15 10 14 -8 -1 -11 -9 -24 -14
-28 -10 -4 5 -14 -1 -22 -11 -8 -11 -14 -15 -14 -9 0 6 -7 13 -15 17 -8 3 -14
0 -12 -7 1 -7 -10 -12 -28 -12 -16 0 -35 -6 -40 -13 -8 -10 -15 -9 -32 8 -25
23 -37 26 -30 7 3 -9 -2 -13 -16 -11 -33 4 -33 4 -19 13 10 6 4 10 -18 14 -31
7 -34 27 -4 27 11 0 13 6 9 19 -5 16 -1 19 24 17 17 -1 27 2 24 8 -4 5 3 7 15
4 12 -4 25 -2 28 4 3 5 13 7 21 4 9 -4 21 -2 27 3 13 11 15 11 57 11 21 0 28
4 23 13 -6 9 -4 9 7 1 8 -6 32 -11 54 -10z m305 6 c0 -5 -5 -10 -11 -10 -5 0
-7 5 -4 10 3 6 8 10 11 10 2 0 4 -4 4 -10z m6195 -30 c-3 -5 -11 -10 -16 -10
-6 0 -7 5 -4 10 3 6 11 10 16 10 6 0 7 -4 4 -10z m-38 -16 c-3 -3 -12 -4 -19
-1 -8 3 -5 6 6 6 11 1 17 -2 13 -5z m1458 -24 c-3 -5 -11 -10 -16 -10 -6 0 -7
5 -4 10 3 6 11 10 16 10 6 0 7 -4 4 -10z m-2805 -36 c0 -2 -7 -4 -15 -4 -8 0
-15 4 -15 10 0 5 7 7 15 4 8 -4 15 -8 15 -10z m530 6 c0 -5 -4 -10 -10 -10 -5
0 -10 5 -10 10 0 6 5 10 10 10 6 0 10 -4 10 -10z m-690 -40 c0 -5 -7 -7 -15
-4 -8 4 -15 8 -15 10 0 2 7 4 15 4 8 0 15 -4 15 -10z m540 -6 c0 -2 -7 -4 -15
-4 -8 0 -15 4 -15 10 0 5 7 7 15 4 8 -4 15 -8 15 -10z m-6395 -4 c17 -7 25
-15 22 -25 -4 -9 -1 -12 9 -8 7 3 14 -1 14 -8 0 -7 -3 -10 -6 -7 -3 4 -19 2
-35 -2 -18 -5 -31 -5 -35 2 -4 6 -10 6 -17 -1 -16 -16 -63 -13 -77 4 -7 9 -10
18 -6 22 3 3 6 1 6 -5 0 -7 5 -12 10 -12 5 0 9 5 7 11 -2 13 51 31 65 23 4 -3
8 0 8 5 0 13 2 13 35 1z m5189 -11 c-30 -12 -37 -10 -24 5 6 8 19 12 27 9 14
-6 14 -8 -3 -14z m2061 11 c-3 -5 -14 -10 -23 -9 -14 0 -13 2 3 9 27 11 27 11
20 0z m460 0 c3 -5 1 -10 -4 -10 -6 0 -11 5 -11 10 0 6 2 10 4 10 3 0 8 -4 11
-10z m-970 -20 c3 -5 1 -10 -4 -10 -6 0 -11 5 -11 10 0 6 2 10 4 10 3 0 8 -4
11 -10z m-1065 -10 c0 -5 -7 -10 -15 -10 -8 0 -15 5 -15 10 0 6 7 10 15 10 8
0 15 -4 15 -10z m-5880 -11 c0 -8 6 -7 17 2 13 11 17 11 20 1 3 -6 8 -10 13
-7 11 7 23 -31 15 -45 -3 -5 -12 -10 -18 -9 -9 0 -9 2 1 6 14 5 16 23 3 23 -5
0 -12 -9 -16 -19 -3 -11 -13 -18 -23 -17 -9 2 -22 -4 -29 -13 -11 -14 -12 -14
-13 -1 0 16 -40 26 -40 10 0 -5 -6 -7 -14 -4 -7 3 -16 -2 -19 -10 -9 -24 -77
-19 -77 6 0 10 -4 18 -10 18 -5 0 -10 5 -10 11 0 6 6 9 14 6 8 -3 17 1 20 9 5
12 10 13 28 3 22 -12 22 -11 8 6 -14 17 -14 18 5 8 15 -9 22 -8 32 5 8 11 12
12 13 5 0 -7 8 -13 18 -13 15 0 15 2 2 10 -11 8 -8 9 13 4 17 -4 27 -2 27 5 0
6 5 11 10 11 6 0 10 -5 10 -11z m5240 -4 c11 -13 8 -15 -19 -15 -33 0 -42 16
-13 23 9 3 18 5 18 6 1 0 7 -6 14 -14z m450 -45 c0 -5 -2 -10 -4 -10 -3 0 -8
5 -11 10 -3 6 -1 10 4 10 6 0 11 -4 11 -10z m-660 -4 c0 -11 -19 -15 -25 -6
-3 5 1 10 9 10 9 0 16 -2 16 -4z m477 -42 c-9 -9 -28 6 -21 18 4 6 10 6 17 -1
6 -6 8 -13 4 -17z m33 16 c0 -5 -4 -10 -10 -10 -5 0 -10 5 -10 10 0 6 5 10 10
10 6 0 10 -4 10 -10z m550 0 c0 -5 -2 -10 -4 -10 -3 0 -8 5 -11 10 -3 6 -1 10
4 10 6 0 11 -4 11 -10z m-1250 -20 c0 -5 -4 -10 -10 -10 -5 0 -10 5 -10 10 0
6 5 10 10 10 6 0 10 -4 10 -10z m1616 -27 c-7 -7 -26 7 -26 19 0 6 6 6 15 -2
9 -7 13 -15 11 -17z m-541 7 c3 -5 1 -10 -4 -10 -6 0 -11 5 -11 10 0 6 2 10 4
10 3 0 8 -4 11 -10z m1840 -15 c34 -16 43 -24 29 -24 -28 -1 -94 26 -94 39 0
14 8 12 65 -15z m-2405 4 c0 -6 -7 -9 -15 -6 -8 4 -17 2 -20 -3 -3 -5 -13 -6
-23 -3 -14 6 -13 8 8 14 38 11 50 10 50 -2z m920 -29 c0 -5 -4 -10 -10 -10 -5
0 -10 5 -10 10 0 6 5 10 10 10 6 0 10 -4 10 -10z m-1105 -11 c4 -6 5 -12 2
-15 -7 -7 -37 7 -37 17 0 13 27 11 35 -2z m580 -10 c-3 -4 -12 -6 -20 -3 -8 4
-13 10 -10 15 3 4 12 6 20 3 8 -4 13 -10 10 -15z m935 1 c-8 -5 -19 -10 -25
-10 -5 0 -3 5 5 10 8 5 20 10 25 10 6 0 3 -5 -5 -10z m-1560 -10 c0 -5 -2 -10
-4 -10 -3 0 -8 5 -11 10 -3 6 -1 10 4 10 6 0 11 -4 11 -10z m985 -20 c3 -5 -1
-10 -9 -10 -9 0 -16 5 -16 10 0 6 4 10 9 10 6 0 13 -4 16 -10z m-551 -6 c22
-9 10 -23 -14 -17 -11 3 -17 9 -14 14 6 11 8 11 28 3z m366 -44 c0 -5 -4 -10
-9 -10 -6 0 -13 5 -16 10 -3 6 1 10 9 10 9 0 16 -4 16 -10z m-535 -10 c4 -6
-7 -10 -24 -10 -17 0 -31 5 -31 10 0 6 11 10 24 10 14 0 28 -4 31 -10z m2065
0 c-20 -13 -33 -13 -25 0 3 6 14 10 23 10 15 0 15 -2 2 -10z m-1108 -12 c-9
-9 -15 -9 -24 0 -9 9 -7 12 12 12 19 0 21 -3 12 -12z m-574 -25 c2 -8 -5 -13
-17 -13 -21 0 -35 13 -24 24 10 10 36 3 41 -11z m-578 -13 c0 -5 -9 -10 -20
-10 -11 0 -20 5 -20 10 0 6 9 10 20 10 11 0 20 -4 20 -10z m975 0 c3 -5 -1
-10 -9 -10 -9 0 -16 5 -16 10 0 6 4 10 9 10 6 0 13 -4 16 -10z m-595 -41 c0
-5 -7 -9 -15 -9 -15 0 -20 12 -9 23 8 8 24 -1 24 -14z m415 -9 c3 -5 -3 -10
-15 -10 -12 0 -18 5 -15 10 3 6 10 10 15 10 5 0 12 -4 15 -10z m-605 -40 c0
-5 -7 -10 -15 -10 -8 0 -15 5 -15 10 0 6 7 10 15 10 8 0 15 -4 15 -10z m424
-21 c-7 -11 -34 -12 -34 -1 0 14 11 21 26 15 8 -3 11 -9 8 -14z m-1113 -18
c13 -11 21 -23 17 -26 -9 -9 -58 21 -58 35 0 15 15 12 41 -9z m929 -31 c0 -5
-9 -10 -21 -10 -11 0 -17 5 -14 10 3 6 13 10 21 10 8 0 14 -4 14 -10z m895
-70 c-3 -5 -13 -10 -21 -10 -8 0 -12 5 -9 10 3 6 13 10 21 10 8 0 12 -4 9 -10z
m-1255 -30 c0 -5 -7 -10 -16 -10 -8 0 -12 5 -9 10 3 6 10 10 16 10 5 0 9 -4 9
-10z m348 -49 c10 -6 6 -10 -15 -14 -31 -6 -46 0 -38 14 8 11 36 12 53 0z"/>
<path d="M962 5647 c-20 -22 -22 -33 -22 -165 l0 -142 25 0 25 0 0 165 c0 91
-1 165 -3 165 -2 0 -13 -10 -25 -23z"/>
<path d="M4863 2203 c9 -2 23 -2 30 0 6 3 -1 5 -18 5 -16 0 -22 -2 -12 -5z"/>
<path d="M4428 2143 c6 -2 18 -2 25 0 6 3 1 5 -13 5 -14 0 -19 -2 -12 -5z"/>
<path d="M2322 4943 c4 -22 43 -25 43 -3 0 8 -11 16 -23 18 -19 3 -23 0 -20
-15z"/>
<path d="M4741 4874 c0 -11 3 -14 6 -6 3 7 2 16 -1 19 -3 4 -6 -2 -5 -13z"/>
<path d="M3342 4665 c0 -16 2 -22 5 -12 2 9 2 23 0 30 -3 6 -5 -1 -5 -18z"/>
<path d="M3385 4661 c-3 -5 -1 -12 5 -16 5 -3 10 1 10 9 0 18 -6 21 -15 7z"/>
<path d="M3430 4660 c0 -11 5 -20 10 -20 6 0 10 9 10 20 0 11 -4 20 -10 20 -5
0 -10 -9 -10 -20z"/>
<path d="M3520 4668 c0 -16 5 -28 10 -28 13 0 13 20 0 40 -8 12 -10 9 -10 -12z"/>
<path d="M6506 4635 c4 -8 10 -15 15 -15 5 0 9 7 9 15 0 8 -7 15 -15 15 -9 0
-12 -6 -9 -15z"/>
<path d="M3311 4054 c0 -11 3 -14 6 -6 3 7 2 16 -1 19 -3 4 -6 -2 -5 -13z"/>
<path d="M2731 4034 c0 -11 3 -14 6 -6 3 7 2 16 -1 19 -3 4 -6 -2 -5 -13z"/>
<path d="M6937 3910 c-5 -25 -10 -55 -14 -67 -4 -20 -1 -23 21 -23 30 0 31 8
12 85 l-12 50 -7 -45z"/>
<path d="M7950 3951 c0 -55 9 -66 45 -57 16 4 26 16 30 35 9 42 -9 71 -45 71
-29 0 -30 -1 -30 -49z"/>
<path d="M9150 3940 c0 -51 3 -60 18 -60 31 0 55 25 55 58 0 39 -18 62 -49 62
-23 0 -24 -3 -24 -60z"/>
<path d="M9672 3948 c3 -52 4 -53 32 -51 68 5 58 103 -10 103 -24 0 -25 -2
-22 -52z"/>
<path d="M10542 3899 c-15 -84 -16 -79 13 -79 29 0 30 14 11 95 l-12 50 -12
-66z"/>
<path d="M10802 3948 c3 -45 6 -53 24 -56 45 -6 72 59 38 92 -8 9 -27 16 -40
16 -24 0 -25 -2 -22 -52z"/>
<path d="M3440 3860 c0 -5 5 -10 10 -10 6 0 10 5 10 10 0 6 -4 10 -10 10 -5 0
-10 -4 -10 -10z"/>
<path d="M3350 3765 c0 -8 4 -15 8 -15 5 0 9 7 9 15 0 8 -4 15 -9 15 -4 0 -8
-7 -8 -15z"/>
<path d="M5490 3676 c0 -21 5 -24 40 -24 22 0 42 3 45 8 3 5 12 7 20 3 10 -3
15 1 15 14 0 14 -8 19 -30 21 -19 1 -30 -2 -30 -10 0 -9 -3 -8 -10 2 -8 13
-10 13 -10 -1 0 -9 -7 -19 -15 -23 -9 -3 -15 0 -15 8 0 8 6 17 13 19 7 3 5 6
-5 6 -12 1 -18 -7 -18 -23z"/>
<path d="M5246 3679 c3 -5 0 -16 -6 -24 -11 -13 -7 -15 24 -15 33 0 37 3 34
22 -2 17 -10 23 -31 25 -16 1 -25 -2 -21 -8z"/>
<path d="M5390 3664 c0 -31 23 -28 28 4 2 15 -2 22 -12 22 -11 0 -16 -9 -16
-26z"/>
<path d="M4997 3673 c-4 -6 -4 -18 -1 -27 8 -21 74 -22 74 -2 0 8 6 17 13 20
6 3 -7 4 -30 2 -23 -2 -44 2 -46 8 -2 7 -6 6 -10 -1z"/>
<path d="M4780 3639 c0 -10 7 -19 15 -19 8 0 15 6 15 13 0 8 4 7 10 -3 9 -13
10 -13 10 0 0 13 1 13 10 0 8 -12 10 -12 10 5 0 16 -7 20 -35 22 -29 1 -35 -2
-35 -18z"/>
<path d="M4880 3641 c0 -15 6 -19 26 -17 14 2 30 9 35 17 6 10 9 10 9 2 0 -7
9 -13 20 -13 13 0 18 5 14 15 -4 11 -21 15 -55 15 -42 0 -49 -3 -49 -19z"/>
<path d="M2641 3734 c0 -11 3 -14 6 -6 3 7 2 16 -1 19 -3 4 -6 -2 -5 -13z"/>
<path d="M4941 3564 c0 -11 3 -14 6 -6 3 7 2 16 -1 19 -3 4 -6 -2 -5 -13z"/>
<path d="M3535 3490 c-3 -5 1 -10 10 -10 9 0 13 5 10 10 -3 6 -8 10 -10 10 -2
0 -7 -4 -10 -10z"/>
<path d="M3330 3485 c0 -8 5 -15 10 -15 6 0 10 7 10 15 0 8 -4 15 -10 15 -5 0
-10 -7 -10 -15z"/>
<path d="M6819 3414 c-19 -24 -20 -214 0 -237 20 -25 50 -21 61 9 11 28 12
175 1 214 -8 30 -42 38 -62 14z"/>
<path d="M7387 3423 c-4 -3 -7 -28 -7 -55 0 -42 3 -48 21 -48 39 0 59 19 59
55 0 24 -6 38 -19 45 -23 12 -45 13 -54 3z"/>
<path d="M8297 3423 c-4 -3 -7 -28 -7 -55 0 -42 3 -48 21 -48 39 0 59 19 59
55 0 24 -6 38 -19 45 -23 12 -45 13 -54 3z"/>
<path d="M9417 3350 c-3 -25 -9 -60 -13 -77 -6 -30 -4 -33 19 -33 14 0 28 3
30 8 2 4 -4 39 -13 77 l-16 70 -7 -45z"/>
<path d="M3541 3394 c0 -11 3 -14 6 -6 3 7 2 16 -1 19 -3 4 -6 -2 -5 -13z"/>
<path d="M4940 3400 c0 -5 5 -10 10 -10 6 0 10 5 10 10 0 6 -4 10 -10 10 -5 0
-10 -4 -10 -10z"/>
<path d="M5411 3354 c0 -11 3 -14 6 -6 3 7 2 16 -1 19 -3 4 -6 -2 -5 -13z"/>
<path d="M3066 3281 c-4 -7 -5 -15 -2 -18 9 -9 19 4 14 18 -4 11 -6 11 -12 0z"/>
<path d="M2425 3230 c3 -5 8 -10 11 -10 2 0 4 5 4 10 0 6 -5 10 -11 10 -5 0
-7 -4 -4 -10z"/>
<path d="M4475 3201 c-6 -11 13 -26 22 -17 4 3 0 6 -8 6 -11 0 -11 2 1 10 9 6
10 10 3 10 -6 0 -14 -4 -18 -9z"/>
<path d="M3031 3174 c0 -11 3 -14 6 -6 3 7 2 16 -1 19 -3 4 -6 -2 -5 -13z"/>
<path d="M2770 3154 c0 -8 5 -12 10 -9 6 3 10 10 10 16 0 5 -4 9 -10 9 -5 0
-10 -7 -10 -16z"/>
<path d="M2361 3124 c0 -11 3 -14 6 -6 3 7 2 16 -1 19 -3 4 -6 -2 -5 -13z"/>
<path d="M2410 3124 c0 -8 5 -12 10 -9 6 3 10 10 10 16 0 5 -4 9 -10 9 -5 0
-10 -7 -10 -16z"/>
<path d="M5291 3034 c0 -11 3 -14 6 -6 3 7 2 16 -1 19 -3 4 -6 -2 -5 -13z"/>
<path d="M5291 2954 c0 -11 3 -14 6 -6 3 7 2 16 -1 19 -3 4 -6 -2 -5 -13z"/>
<path d="M3858 2823 c6 -2 18 -2 25 0 6 3 1 5 -13 5 -14 0 -19 -2 -12 -5z"/>
<path d="M3618 2803 c6 -2 18 -2 25 0 6 3 1 5 -13 5 -14 0 -19 -2 -12 -5z"/>
<path d="M4821 2914 c0 -11 3 -14 6 -6 3 7 2 16 -1 19 -3 4 -6 -2 -5 -13z"/>
<path d="M9847 2763 c-14 -13 -7 -101 8 -117 43 -43 82 60 42 112 -10 13 -39
16 -50 5z"/>
<path d="M10267 2763 c-3 -5 -2 -15 3 -22 10 -17 43 -6 38 12 -6 15 -34 22
-41 10z"/>
<path d="M10256 2681 c-16 -25 19 -56 45 -41 11 7 10 13 -5 29 -21 23 -32 26
-40 12z"/>
<path d="M8570 2735 c0 -37 9 -42 58 -29 14 4 22 14 22 29 0 24 -17 35 -56 35
-21 0 -24 -5 -24 -35z"/>
<path d="M10480 2734 c0 -34 1 -35 31 -32 63 6 61 68 -2 68 -27 0 -29 -3 -29
-36z"/>
<path d="M5421 2734 c0 -11 3 -14 6 -6 3 7 2 16 -1 19 -3 4 -6 -2 -5 -13z"/>
<path d="M6791 2716 c-9 -11 -5 -15 21 -19 39 -6 40 -5 32 17 -8 20 -37 21
-53 2z"/>
<path d="M7594 2666 c-15 -12 -17 -17 -6 -28 15 -15 45 0 50 26 4 20 -18 21
-44 2z"/>
<path d="M7812 2717 c-15 -18 -5 -27 30 -27 23 0 29 4 26 18 -4 21 -41 28 -56
9z"/>
<path d="M8719 2704 c-7 -20 -6 -32 6 -50 18 -27 19 -28 46 -14 22 12 26 59 7
78 -20 20 -48 14 -59 -14z"/>
<path d="M9056 2714 c-9 -24 -9 -24 29 -24 37 0 43 8 23 28 -17 17 -45 15 -52
-4z"/>
<path d="M9537 2723 c-16 -16 -5 -33 21 -33 35 0 45 9 31 27 -12 14 -41 18
-52 6z"/>
<path d="M10831 2708 c-11 -30 -3 -56 21 -63 24 -8 48 11 48 39 0 45 -54 64
-69 24z"/>
<path d="M8740 2405 c0 -74 0 -75 25 -75 33 0 75 42 75 73 0 37 -36 77 -71 77
l-29 0 0 -75z"/>
<path d="M9076 2414 c-10 -25 -7 -59 6 -72 35 -35 82 14 60 63 -13 29 -56 35
-66 9z"/>
<path d="M9743 2464 c-7 -18 11 -39 26 -30 17 11 13 46 -4 46 -9 0 -18 -7 -22
-16z"/>
<path d="M9726 2374 c-8 -21 11 -44 35 -44 26 0 30 13 13 38 -18 26 -39 28
-48 6z"/>
<path d="M10167 2423 c-13 -12 -7 -70 8 -83 36 -29 79 24 55 69 -10 20 -49 29
-63 14z"/>
<path d="M6657 2416 c-5 -13 1 -16 29 -16 24 0 34 4 32 13 -7 19 -54 21 -61 3z"/>
<path d="M7056 2414 c-10 -25 -7 -59 6 -72 35 -35 82 14 60 63 -13 29 -56 35
-66 9z"/>
<path d="M7372 2418 c-17 -17 -15 -63 3 -78 35 -29 76 10 59 57 -10 31 -42 41
-62 21z"/>
<path d="M7837 2424 c-15 -16 -5 -24 29 -24 24 0 34 4 32 13 -5 13 -50 22 -61
11z"/>
<path d="M8927 2424 c-16 -16 -5 -29 23 -29 22 0 30 4 28 15 -3 16 -39 26 -51
14z"/>
<path d="M9313 2373 c-26 -5 -38 -32 -18 -39 25 -10 50 1 53 24 2 12 0 21 -5
21 -4 -1 -18 -4 -30 -6z"/>
<path d="M4110 2310 c0 -5 5 -10 10 -10 6 0 10 5 10 10 0 6 -4 10 -10 10 -5 0
-10 -4 -10 -10z"/>
<path d="M7540 2094 c-8 -20 -7 -32 5 -50 29 -44 69 -20 63 38 -2 28 -7 34
-30 36 -23 3 -30 -2 -38 -24z"/>
<path d="M8280 2140 c0 -30 2 -31 38 -28 32 3 37 6 37 28 0 22 -5 25 -37 28
-36 3 -38 2 -38 -28z"/>
<path d="M8284 2076 c-17 -45 29 -73 71 -42 16 12 18 18 9 33 -14 23 -72 30
-80 9z"/>
<path d="M6658 2063 c-24 -6 -24 -43 0 -43 21 0 42 18 42 37 0 13 -10 15 -42
6z"/>
<path d="M7395 2114 c-36 -36 1 -114 43 -88 24 16 28 75 6 91 -23 17 -29 16
-49 -3z"/>
<path d="M7918 2059 c-23 -13 -12 -39 17 -39 21 0 35 17 35 41 0 12 -30 11
-52 -2z"/>
<path d="M8455 2110 c-18 -20 -17 -20 23 -20 45 0 54 13 23 30 -26 13 -25 13
-46 -10z"/>
<path d="M8608 2059 c-23 -13 -12 -39 17 -39 21 0 35 17 35 41 0 12 -30 11
-52 -2z"/>
<path d="M4694 1454 c-18 -14 -18 -15 4 -4 12 6 22 13 22 15 0 8 -5 6 -26 -11z"/>
<path d="M2130 980 c0 -5 7 -7 15 -4 8 4 15 8 15 10 0 2 -7 4 -15 4 -8 0 -15
-4 -15 -10z"/>
<path d="M46 651 c-4 -5 3 -7 14 -4 23 6 26 13 6 13 -8 0 -17 -4 -20 -9z"/>
</g>
</svg>
